<?xml version="1.0" encoding="UTF-8" standalone="no"?>
<!-- Created with Inkscape (http://www.inkscape.org/) -->

<svg
   width="1911.7599"
   height="891.09381"
   viewBox="0 0 505.81981 235.76857"
   version="1.1"
   id="svg5"
   inkscape:version="1.2.2 (b0a8486541, 2022-12-01)"
   sodipodi:docname="build_recipe_generator.svg"
   xmlns:inkscape="http://www.inkscape.org/namespaces/inkscape"
   xmlns:sodipodi="http://sodipodi.sourceforge.net/DTD/sodipodi-0.dtd"
   xmlns:xlink="http://www.w3.org/1999/xlink"
   xmlns="http://www.w3.org/2000/svg"
   xmlns:svg="http://www.w3.org/2000/svg"
   xmlns:sketch="http://www.bohemiancoding.com/sketch/ns">
  <sodipodi:namedview
     id="namedview7"
     pagecolor="#ffffff"
     bordercolor="#666666"
     borderopacity="1.0"
     inkscape:pageshadow="2"
     inkscape:pageopacity="0.0"
     inkscape:pagecheckerboard="0"
     inkscape:document-units="mm"
     showgrid="false"
     units="px"
     inkscape:zoom="0.40567375"
     inkscape:cx="711.1626"
     inkscape:cy="255.13112"
     inkscape:window-width="1916"
     inkscape:window-height="1036"
     inkscape:window-x="0"
     inkscape:window-y="20"
     inkscape:window-maximized="1"
     inkscape:current-layer="layer1"
     showguides="false"
     inkscape:showpageshadow="2"
     inkscape:deskcolor="#d1d1d1" />
  <defs
     id="defs2">
    <marker
       style="overflow:visible"
       id="Arrow1Mend"
       refX="0"
       refY="0"
       orient="auto"
       inkscape:stockid="Arrow1Mend"
       inkscape:isstock="true">
      <path
         transform="matrix(-0.4,0,0,-0.4,-4,0)"
         style="fill:context-stroke;fill-rule:evenodd;stroke:context-stroke;stroke-width:1pt"
         d="M 0,0 5,-5 -12.5,0 5,5 Z"
         id="path1406" />
    </marker>
    <marker
       style="overflow:visible"
       id="Arrow1Lstart"
       refX="0"
       refY="0"
       orient="auto"
       inkscape:stockid="Arrow1Lstart"
       inkscape:isstock="true">
      <path
         transform="matrix(0.8,0,0,0.8,10,0)"
         style="fill:context-stroke;fill-rule:evenodd;stroke:context-stroke;stroke-width:1pt"
         d="M 0,0 5,-5 -12.5,0 5,5 Z"
         id="path1397" />
    </marker>
    <marker
       style="overflow:visible"
       id="Arrow1Mend-2"
       refX="0"
       refY="0"
       orient="auto"
       inkscape:stockid="Arrow1Mend"
       inkscape:isstock="true">
      <path
         transform="matrix(-0.4,0,0,-0.4,-4,0)"
         style="fill:context-stroke;fill-rule:evenodd;stroke:context-stroke;stroke-width:1pt"
         d="M 0,0 5,-5 -12.5,0 5,5 Z"
         id="path1406-9" />
    </marker>
    <marker
       style="overflow:visible"
       id="Arrow1Mend-9"
       refX="0"
       refY="0"
       orient="auto"
       inkscape:stockid="Arrow1Mend"
       inkscape:isstock="true">
      <path
         transform="matrix(-0.4,0,0,-0.4,-4,0)"
         style="fill:context-stroke;fill-rule:evenodd;stroke:context-stroke;stroke-width:1pt"
         d="M 0,0 5,-5 -12.5,0 5,5 Z"
         id="path1406-3" />
    </marker>
    <marker
       style="overflow:visible"
       id="Arrow1Mend-26"
       refX="0"
       refY="0"
       orient="auto"
       inkscape:stockid="Arrow1Mend"
       inkscape:isstock="true">
      <path
         transform="matrix(-0.4,0,0,-0.4,-4,0)"
         style="fill:context-stroke;fill-rule:evenodd;stroke:context-stroke;stroke-width:1pt"
         d="M 0,0 5,-5 -12.5,0 5,5 Z"
         id="path1406-1" />
    </marker>
    <marker
       style="overflow:visible"
       id="Arrow1Mend-7"
       refX="0"
       refY="0"
       orient="auto"
       inkscape:stockid="Arrow1Mend"
       inkscape:isstock="true">
      <path
         transform="matrix(-0.4,0,0,-0.4,-4,0)"
         style="fill:context-stroke;fill-rule:evenodd;stroke:context-stroke;stroke-width:1pt"
         d="M 0,0 5,-5 -12.5,0 5,5 Z"
         id="path1406-36" />
    </marker>
    <marker
       style="overflow:visible"
       id="Arrow1Mend-7-2"
       refX="0"
       refY="0"
       orient="auto"
       inkscape:stockid="Arrow1Mend"
       inkscape:isstock="true">
      <path
         transform="matrix(-0.4,0,0,-0.4,-4,0)"
         style="fill:context-stroke;fill-rule:evenodd;stroke:context-stroke;stroke-width:1pt"
         d="M 0,0 5,-5 -12.5,0 5,5 Z"
         id="path1406-36-9" />
    </marker>
    <marker
       style="overflow:visible"
       id="Arrow1Mend-7-2-1"
       refX="0"
       refY="0"
       orient="auto"
       inkscape:stockid="Arrow1Mend"
       inkscape:isstock="true">
      <path
         transform="matrix(-0.4,0,0,-0.4,-4,0)"
         style="fill:context-stroke;fill-rule:evenodd;stroke:context-stroke;stroke-width:1pt"
         d="M 0,0 5,-5 -12.5,0 5,5 Z"
         id="path1406-36-9-9" />
    </marker>
    <marker
       style="overflow:visible"
       id="Arrow1Mend-7-2-1-5"
       refX="0"
       refY="0"
       orient="auto"
       inkscape:stockid="Arrow1Mend"
       inkscape:isstock="true">
      <path
         transform="matrix(-0.4,0,0,-0.4,-4,0)"
         style="fill:context-stroke;fill-rule:evenodd;stroke:context-stroke;stroke-width:1pt"
         d="M 0,0 5,-5 -12.5,0 5,5 Z"
         id="path1406-36-9-9-0" />
    </marker>
    <marker
       style="overflow:visible"
       id="Arrow1Mend-26-6"
       refX="0"
       refY="0"
       orient="auto"
       inkscape:stockid="Arrow1Mend"
       inkscape:isstock="true">
      <path
         transform="matrix(-0.4,0,0,-0.4,-4,0)"
         style="fill:context-stroke;fill-rule:evenodd;stroke:context-stroke;stroke-width:1pt"
         d="M 0,0 5,-5 -12.5,0 5,5 Z"
         id="path1406-1-1" />
    </marker>
    <marker
       style="overflow:visible"
       id="Arrow1Mend-26-6-6"
       refX="0"
       refY="0"
       orient="auto"
       inkscape:stockid="Arrow1Mend"
       inkscape:isstock="true">
      <path
         transform="matrix(-0.4,0,0,-0.4,-4,0)"
         style="fill:context-stroke;fill-rule:evenodd;stroke:context-stroke;stroke-width:1pt"
         d="M 0,0 5,-5 -12.5,0 5,5 Z"
         id="path1406-1-1-3" />
    </marker>
    <marker
       style="overflow:visible"
       id="Arrow1Mend-26-6-6-0"
       refX="0"
       refY="0"
       orient="auto"
       inkscape:stockid="Arrow1Mend"
       inkscape:isstock="true">
      <path
         transform="matrix(-0.4,0,0,-0.4,-4,0)"
         style="fill:context-stroke;fill-rule:evenodd;stroke:context-stroke;stroke-width:1pt"
         d="M 0,0 5,-5 -12.5,0 5,5 Z"
         id="path1406-1-1-3-6" />
    </marker>
    <marker
       style="overflow:visible"
       id="Arrow1Mend-26-6-6-0-5"
       refX="0"
       refY="0"
       orient="auto"
       inkscape:stockid="Arrow1Mend"
       inkscape:isstock="true">
      <path
         transform="matrix(-0.4,0,0,-0.4,-4,0)"
         style="fill:context-stroke;fill-rule:evenodd;stroke:context-stroke;stroke-width:1pt"
         d="M 0,0 5,-5 -12.5,0 5,5 Z"
         id="path1406-1-1-3-6-5" />
    </marker>
    <linearGradient
       gradientUnits="userSpaceOnUse"
       y2="131.85291"
       x2="110.14919"
       y1="77.070274"
       x1="55.549179"
       id="linearGradient9521"
       xlink:href="#linearGradient9515"
       inkscape:collect="always" />
    <linearGradient
       id="linearGradient9515"
       inkscape:collect="always">
      <stop
         id="stop9517"
         offset="0"
         style="stop-color:#387eb8;stop-opacity:1" />
      <stop
         id="stop9519"
         offset="1"
         style="stop-color:#366994;stop-opacity:1" />
    </linearGradient>
    <linearGradient
       gradientUnits="userSpaceOnUse"
       y2="168.1012"
       x2="147.77737"
       y1="111.92053"
       x1="89.136749"
       id="linearGradient11307"
       xlink:href="#linearGradient11301"
       inkscape:collect="always" />
    <linearGradient
       id="linearGradient11301"
       inkscape:collect="always">
      <stop
         id="stop11303"
         offset="0"
         style="stop-color:#ffe052;stop-opacity:1" />
      <stop
         id="stop11305"
         offset="1"
         style="stop-color:#ffc331;stop-opacity:1" />
    </linearGradient>
    <marker
       style="overflow:visible"
       id="Arrow1Mend-8"
       refX="0"
       refY="0"
       orient="auto"
       inkscape:stockid="Arrow1Mend"
       inkscape:isstock="true">
      <path
         transform="matrix(-0.4,0,0,-0.4,-4,0)"
         style="fill:context-stroke;fill-rule:evenodd;stroke:context-stroke;stroke-width:1pt"
         d="M 0,0 5,-5 -12.5,0 5,5 Z"
         id="path1406-4" />
    </marker>
    <marker
       style="overflow:visible"
       id="Arrow1Mend-0"
       refX="0"
       refY="0"
       orient="auto"
       inkscape:stockid="Arrow1Mend"
       inkscape:isstock="true">
      <path
         transform="matrix(-0.4,0,0,-0.4,-4,0)"
         style="fill:context-stroke;fill-rule:evenodd;stroke:context-stroke;stroke-width:1pt"
         d="M 0,0 5,-5 -12.5,0 5,5 Z"
         id="path1406-361" />
    </marker>
  </defs>
  <g
     inkscape:label="Layer 1"
     inkscape:groupmode="layer"
     id="layer1"
     transform="translate(-0.79669085,-31.083357)">
    <rect
       style="fill:none;stroke:#000000;stroke-width:1.852;stroke-miterlimit:4;stroke-dasharray:5.556, 5.556;stroke-dashoffset:0;stroke-opacity:1;stop-color:#000000"
       id="rect1176"
       width="118.75774"
       height="234.01382"
       x="1.72686"
       y="32.009357"
       ry="5.4157844" />
    <rect
       style="fill:none;stroke:#000000;stroke-width:1.852;stroke-miterlimit:4;stroke-dasharray:5.556, 5.556;stroke-dashoffset:0;stroke-opacity:1;stop-color:#000000"
       id="rect1176-7"
       width="193.34535"
       height="232.74634"
       x="312.32886"
       y="33.179596"
       ry="7.4513493" />
    <g
       id="g2560"
       transform="matrix(0.13849552,0,0,0.13849552,16.904829,67.29776)">
      <path
         id="path50_5_"
         class="st3"
         d="m 292.778,434.892 v 0 L 354.977,243.57 H 230.669 Z" />
      <path
         id="path66_12_"
         class="st4"
         d="m 143.549,243.57 v 0 l -18.941,58.126 c -1.714,5.278 0.137,11.104 4.661,14.394 l 163.509,118.801 z" />
      <path
         id="path74_5_"
         class="st3"
         d="m 143.549,243.57 h 87.12 L 193.175,128.346 c -1.919,-5.895 -10.282,-5.895 -12.27,0 z" />
      <path
         id="path82_12_"
         class="st4"
         d="m 442.097,243.57 v 0 l 18.873,58.126 c 1.714,5.278 -0.137,11.104 -4.661,14.394 L 292.778,434.892 Z" />
      <path
         id="path86_5_"
         class="st3"
         d="m 442.097,243.57 h -87.12 l 37.425,-115.224 c 1.919,-5.895 10.282,-5.895 12.27,0 z" />
      <polygon
         class="st5"
         points="354.977,243.57 442.097,243.57 292.778,434.892 "
         id="polygon2556" />
      <polygon
         class="st5"
         points="143.549,243.57 230.669,243.57 292.778,434.892 "
         id="polygon2558" />
    </g>
    <g
       id="spacing_guides"
       class="st14"
       transform="matrix(0.26458333,0,0,0.26458333,-1.3828309,203.24246)">
      <path
         id="path40_32_"
         sketch:type="MSShapeGroup"
         class="st15"
         d="M -1,0 V 124 H 1267 V 0 Z" />
      <path
         id="path40_31_"
         sketch:type="MSShapeGroup"
         class="st15"
         d="M -1,435 V 559 H 1267 V 435 Z" />
      <path
         id="path40_30_"
         sketch:type="MSShapeGroup"
         class="st15"
         d="m 261.69,434.551 h 62 v -310 h -62 z" />
      <path
         id="path40_29_"
         sketch:type="MSShapeGroup"
         class="st15"
         d="m 462.2,560 h 62 V -1 h -62 z" />
      <text
         transform="translate(256.2529,195)"
         class="st16 st18 st19"
         id="text2569">H: 2.5 x</text>
      <text
         transform="translate(468.4727,282.832)"
         class="st16 st18 st19"
         id="text2571">1/2 x</text>
      <text
         transform="translate(621.2881,500.4978)"
         class="st16 st18 st19"
         id="text2573">1x</text>
      <text
         transform="translate(621.2881,65.4988)"
         class="st16 st18 st19"
         id="text2575">1x</text>
      <path
         id="path40_27_"
         sketch:type="MSShapeGroup"
         class="st15"
         d="M 0,560 H 124 V -1 H 0 Z" />
      <text
         transform="translate(51.2881,282.832)"
         class="st16 st18 st19"
         id="text2578">1x</text>
      <path
         id="path40_3_"
         sketch:type="MSShapeGroup"
         class="st15"
         d="m 1142,560 h 124 V -1 h -124 z" />
      <text
         transform="translate(1191.2881,282.832)"
         class="st16 st18 st19"
         id="text2581">1x</text>
    </g>
    <path
       d="m 157.10825,95.779884 h 12.2203 v 3.055095 h -12.2203 z m 0,-6.11015 h 12.2203 v 3.05511 h -12.2203 z m 9.16526,-15.27542 h -12.22037 c -1.68029,0 -3.05511,1.37476 -3.05511,3.05505 v 24.440716 c 0,1.68029 1.35952,3.05505 3.03981,3.05505 h 18.34582 c 1.68029,0 3.05511,-1.37476 3.05511,-3.05505 V 83.559584 Z m 6.11015,27.495766 H 154.05314 V 77.449364 h 10.69279 v 7.63774 h 7.63773 z"
       id="path2-0"
       style="stroke-width:1.52754" />
    <path
       style="fill:none;stroke:#000000;stroke-width:2.11667;stroke-linecap:butt;stroke-linejoin:miter;stroke-miterlimit:4;stroke-dasharray:none;stroke-opacity:1;marker-end:url(#Arrow1Mend)"
       d="m 85.425464,165.58149 c 16.722246,0 17.240466,-73.826847 47.120226,-73.826847 h 10.05416"
       id="path3802"
       sodipodi:nodetypes="ccc" />
    <path
       style="fill:none;stroke:#000000;stroke-width:2.11667;stroke-linecap:butt;stroke-linejoin:miter;stroke-miterlimit:4;stroke-dasharray:none;stroke-opacity:1;marker-end:url(#Arrow1Mend-7)"
       d="m 85.425464,169.81482 c 16.722246,0 16.182126,-38.90184 46.061886,-38.90184 h 11.1125"
       id="path3802-1"
       sodipodi:nodetypes="ccc" />
    <path
       style="fill:none;stroke:#000000;stroke-width:2.11667;stroke-linecap:butt;stroke-linejoin:miter;stroke-miterlimit:4;stroke-dasharray:none;stroke-opacity:1;marker-end:url(#Arrow1Mend-7-2)"
       d="m 85.425464,174.04819 c 16.722246,0 17.240466,-0.80183 47.120226,-0.80183 l 9.81683,-0.51227"
       id="path3802-1-3"
       sodipodi:nodetypes="ccc" />
    <path
       style="fill:none;stroke:#000000;stroke-width:2.11667;stroke-linecap:butt;stroke-linejoin:miter;stroke-miterlimit:4;stroke-dasharray:none;stroke-opacity:1;marker-end:url(#Arrow1Mend-7-2-1)"
       d="m 85.425464,178.57587 c 16.722246,0 17.240466,33.08101 47.120226,33.08101 h 8.99583"
       id="path3802-1-3-4"
       sodipodi:nodetypes="ccc" />
    <path
       style="fill:none;stroke:#000000;stroke-width:2.11667;stroke-linecap:butt;stroke-linejoin:miter;stroke-miterlimit:4;stroke-dasharray:none;stroke-opacity:1;marker-end:url(#Arrow1Mend-7-2-1-5)"
       d="m 85.425464,183.3384 c 16.722246,0 17.240466,64.83101 47.120226,64.83101 h 8.99583"
       id="path3802-1-3-4-3"
       sodipodi:nodetypes="ccc" />
    <text
       xml:space="preserve"
       style="font-size:16.9333px;line-height:1.25;font-family:Poppins;-inkscape-font-specification:Poppins;stroke-width:0.264583"
       x="178.60765"
       y="96.576553"
       id="text6606-0"><tspan
         sodipodi:role="line"
         id="tspan6604-6"
         style="font-style:normal;font-variant:normal;font-weight:normal;font-stretch:normal;font-size:16.9333px;font-family:'Roboto Mono';-inkscape-font-specification:'Roboto Mono';stroke-width:0.264583"
         x="178.60765"
         y="96.576553">Dockerfile</tspan></text>
    <path
       d="m 157.10825,136.60328 h 12.2203 v 3.05511 h -12.2203 z m 0,-6.11015 h 12.2203 v 3.05511 h -12.2203 z m 9.16526,-15.27542 h -12.22037 c -1.68029,0 -3.05511,1.37476 -3.05511,3.05505 v 24.44074 c 0,1.68029 1.35952,3.05505 3.03981,3.05505 h 18.34582 c 1.68029,0 3.05511,-1.37476 3.05511,-3.05505 v -18.33052 z m 6.11015,27.49579 h -18.33052 v -24.44074 h 10.69279 v 7.63774 h 7.63773 z"
       id="path2-0-9"
       style="stroke-width:1.52754" />
    <text
       xml:space="preserve"
       style="font-size:16.9333px;line-height:1.25;font-family:Poppins;-inkscape-font-specification:Poppins;stroke-width:0.264583"
       x="178.60765"
       y="137.40088"
       id="text6606-0-2"><tspan
         sodipodi:role="line"
         id="tspan6604-6-0"
         style="font-style:normal;font-variant:normal;font-weight:normal;font-stretch:normal;font-size:16.9333px;font-family:'Roboto Mono';-inkscape-font-specification:'Roboto Mono';stroke-width:0.264583"
         x="178.60765"
         y="137.40088">kiwi.xml</tspan></text>
    <path
       d="m 157.10825,177.93369 h 12.2203 v 3.05511 h -12.2203 z m 0,-6.11015 h 12.2203 v 3.05511 h -12.2203 z m 9.16526,-15.27542 h -12.22037 c -1.68029,0 -3.05511,1.37476 -3.05511,3.05505 v 24.44074 c 0,1.68029 1.35952,3.05505 3.03981,3.05505 h 18.34582 c 1.68029,0 3.05511,-1.37476 3.05511,-3.05505 v -18.33052 z m 6.11015,27.49579 h -18.33052 v -24.44074 h 10.69279 v 7.63774 h 7.63773 z"
       id="path2-0-9-5"
       style="stroke-width:1.52754" />
    <text
       xml:space="preserve"
       style="font-size:16.9333px;line-height:1.25;font-family:Poppins;-inkscape-font-specification:Poppins;stroke-width:0.264583"
       x="178.60765"
       y="178.7321"
       id="text6606-0-2-9"><tspan
         sodipodi:role="line"
         id="tspan6604-6-0-2"
         style="font-style:normal;font-variant:normal;font-weight:normal;font-stretch:normal;font-size:16.9333px;font-family:'Roboto Mono';-inkscape-font-specification:'Roboto Mono';stroke-width:0.264583"
         x="178.60765"
         y="178.7321">config.sh</tspan></text>
    <path
       d="m 157.10825,216.03393 h 12.2203 v 3.05511 h -12.2203 z m 0,-6.11015 h 12.2203 v 3.05511 h -12.2203 z m 9.16526,-15.27542 h -12.22037 c -1.68029,0 -3.05511,1.37476 -3.05511,3.05505 v 24.44074 c 0,1.68029 1.35952,3.05505 3.03981,3.05505 h 18.34582 c 1.68029,0 3.05511,-1.37476 3.05511,-3.05505 v -18.33052 z m 6.11015,27.49579 h -18.33052 v -24.44074 h 10.69279 v 7.63774 h 7.63773 z"
       id="path2-0-9-5-2"
       style="stroke-width:1.52754" />
    <text
       xml:space="preserve"
       style="font-size:16.9333px;line-height:1.25;font-family:Poppins;-inkscape-font-specification:Poppins;stroke-width:0.264583"
       x="178.60765"
       y="216.83159"
       id="text6606-0-2-9-8"><tspan
         sodipodi:role="line"
         id="tspan6604-6-0-2-9"
         style="font-style:normal;font-variant:normal;font-weight:normal;font-stretch:normal;font-size:16.9333px;font-family:'Roboto Mono';-inkscape-font-specification:'Roboto Mono';stroke-width:0.264583"
         x="178.60765"
         y="216.83159">_service</tspan></text>
    <path
       d="m 157.10825,253.07583 h 12.2203 v 3.05511 h -12.2203 z m 0,-6.11015 h 12.2203 v 3.05511 h -12.2203 z m 9.16526,-15.27542 h -12.22037 c -1.68029,0 -3.05511,1.37476 -3.05511,3.05505 v 24.44074 c 0,1.68029 1.35952,3.05505 3.03981,3.05505 h 18.34582 c 1.68029,0 3.05511,-1.37476 3.05511,-3.05505 v -18.33052 z m 6.11015,27.49579 h -18.33052 v -24.44074 h 10.69279 v 7.63774 h 7.63773 z"
       id="path2-0-9-5-2-7"
       style="stroke-width:1.52754" />
    <text
       xml:space="preserve"
       style="font-size:16.9333px;line-height:1.25;font-family:Poppins;-inkscape-font-specification:Poppins;stroke-width:0.264583"
       x="178.60765"
       y="253.87276"
       id="text6606-0-2-9-8-8"><tspan
         sodipodi:role="line"
         style="font-size:16.9333px;stroke-width:0.264583"
         x="178.60765"
         y="253.87276"
         id="tspan30163">+ extra files</tspan></text>
    <path
       style="fill:none;stroke:#000000;stroke-width:2.11667;stroke-linecap:butt;stroke-linejoin:miter;stroke-miterlimit:4;stroke-dasharray:none;stroke-opacity:1"
       d="m 280.81034,76.056049 c 20.00141,0 -6.20809,92.478291 30.49945,92.478291"
       id="path36183"
       sodipodi:nodetypes="cc" />
    <path
       style="fill:none;stroke:#000000;stroke-width:2.11667;stroke-linecap:butt;stroke-linejoin:miter;stroke-miterlimit:4;stroke-dasharray:none;stroke-opacity:1"
       d="m 280.81034,261.01262 c 20.00141,0 -6.20809,-92.47828 30.49945,-92.47828"
       id="path36183-9"
       sodipodi:nodetypes="cc" />
    <path
       style="fill:none;stroke:#000000;stroke-width:2.11667;stroke-linecap:butt;stroke-linejoin:miter;stroke-miterlimit:4;stroke-dasharray:none;stroke-opacity:1;marker-end:url(#Arrow1Mend)"
       d="m 311.30979,168.53434 c 12.61011,0 13.3702,14.51778 36.53175,27.89011"
       id="path36586"
       sodipodi:nodetypes="cc" />
    <path
       style="fill:none;stroke:#000000;stroke-width:2.11667;stroke-linecap:butt;stroke-linejoin:miter;stroke-miterlimit:4;stroke-dasharray:none;stroke-opacity:1;marker-end:url(#Arrow1Mend-0)"
       d="m 311.30979,168.53434 c 12.61011,0 13.7343,0.47957 36.53175,-2.85586"
       id="path36586-0"
       sodipodi:nodetypes="cc" />
    <path
       style="fill:none;stroke:#000000;stroke-width:2.11667;stroke-linecap:butt;stroke-linejoin:miter;stroke-miterlimit:4;stroke-dasharray:none;stroke-opacity:1;marker-end:url(#Arrow1Mend-8)"
       d="m 311.30979,168.53434 c 12.61011,0 0.32869,34.13705 36.53175,65.65332"
       id="path36586-5"
       sodipodi:nodetypes="cc" />
    <g
       id="g205849">
      <path
         fill-rule="evenodd"
         clip-rule="evenodd"
         d="m 56.33362,183.02914 a 8.3036544,8.3036544 0 0 1 -15.887676,3.38513 l -2.568557,1.04072 a 11.074307,11.074307 0 1 0 1.386641,-11.19056 v -3.38511 h -2.767855 v 7.38195 l 1.383932,1.38394 h 6.457447 v -2.76789 h -3.501293 a 8.3036544,8.3036544 0 0 1 15.497361,4.15182 z"
         id="path33597"
         style="stroke-width:2.76788" />
      <path
         fill-rule="evenodd"
         clip-rule="evenodd"
         d="m 50.335638,156.48513 2.158893,-1.13483 24.910972,16.60731 v 2.29733 l -13.230514,8.82126 v -3.32146 l 9.96439,-6.63462 -21.035888,-14.03317 v 10.10277 h -2.767853 z"
         id="path33599"
         style="stroke-width:2.76788" />
    </g>
    <g
       id="g1894"
       transform="matrix(0.26458333,0,0,0.26458333,29.353419,203.69737)">
      <path
         style="color:#000000;display:inline;overflow:visible;visibility:visible;opacity:1;fill:url(#linearGradient9521);fill-opacity:1;fill-rule:nonzero;stroke:none;stroke-width:1;stroke-linecap:butt;stroke-linejoin:miter;stroke-miterlimit:4;stroke-dasharray:none;stroke-dashoffset:0;stroke-opacity:1;marker:none;marker-start:none;marker-mid:none;marker-end:none"
         d="M 99.75,67.46875 C 71.718268,67.468752 73.46875,79.625 73.46875,79.625 L 73.5,92.21875 h 26.75 V 96 H 62.875 c 0,0 -17.9375,-2.034276 -17.9375,26.25 -2e-6,28.28427 15.65625,27.28125 15.65625,27.28125 h 9.34375 v -13.125 c 0,0 -0.503652,-15.65625 15.40625,-15.65625 15.9099,0 26.53125,0 26.53125,0 0,0 14.90625,0.24096 14.90625,-14.40625 0,-14.647206 0,-24.21875 0,-24.21875 0,-2e-6 2.26318,-14.65625 -27.03125,-14.65625 z M 85,75.9375 c 2.661429,-2e-6 4.8125,2.151071 4.8125,4.8125 2e-6,2.661429 -2.151071,4.8125 -4.8125,4.8125 -2.661429,2e-6 -4.8125,-2.151071 -4.8125,-4.8125 -2e-6,-2.661429 2.151071,-4.8125 4.8125,-4.8125 z"
         id="path8615" />
      <path
         id="path8620"
         d="m 100.5461,177.31485 c 28.03174,0 26.28125,-12.15625 26.28125,-12.15625 l -0.0312,-12.59375 h -26.75 v -3.78125 h 37.375 c 0,0 17.9375,2.03427 17.9375,-26.25001 10e-6,-28.284267 -15.65625,-27.281247 -15.65625,-27.281247 h -9.34375 v 13.124997 c 0,0 0.50366,15.65625 -15.40625,15.65625 -15.909902,0 -26.531252,0 -26.531252,0 0,0 -14.90625,-0.24096 -14.90625,14.40626 0,14.6472 0,24.21875 0,24.21875 0,0 -2.26318,14.65625 27.031252,14.65625 z m 14.75,-8.46875 c -2.66143,0 -4.8125,-2.15107 -4.8125,-4.8125 0,-2.66143 2.15107,-4.8125 4.8125,-4.8125 2.66143,0 4.8125,2.15107 4.8125,4.8125 1e-5,2.66143 -2.15107,4.8125 -4.8125,4.8125 z"
         style="color:#000000;display:inline;overflow:visible;visibility:visible;opacity:1;fill:url(#linearGradient11307);fill-opacity:1;fill-rule:nonzero;stroke:none;stroke-width:1;stroke-linecap:butt;stroke-linejoin:miter;stroke-miterlimit:4;stroke-dasharray:none;stroke-dashoffset:0;stroke-opacity:1;marker:none;marker-start:none;marker-mid:none;marker-end:none" />
    </g>
    <text
       xml:space="preserve"
       style="font-style:normal;font-weight:normal;font-size:12.7px;line-height:1.25;font-family:sans-serif;fill:#000000;fill-opacity:1;stroke:none;stroke-width:0.264583"
       x="6.9044175"
       y="51.649525"
       id="text5934-9-9-9"><tspan
         sodipodi:role="line"
         id="tspan5932-0-6-3"
         style="font-style:normal;font-variant:normal;font-weight:normal;font-stretch:normal;font-size:12.7px;font-family:'Roboto Mono';-inkscape-font-specification:'Roboto Mono';stroke-width:0.264583"
         x="6.9044175"
         y="51.649525">gitlab.suse.de</tspan></text>
    <g
       id="g167094"
       transform="matrix(0.88658687,0,0,0.88658687,-15.13422,-4.4697258)">
      <path
         fill="#636a72"
         d="m 461.96124,75.110165 v 35.157325 1.8503 38.85826 l 23.84132,-9.25216 -1.35171,-19.78715 -18.60402,-9.82322 V 80.661063 Z m -18.45774,5.635852 v 33.214193 l 3.40014,-0.68061 V 86.489783 Z m -18.44919,5.492184 -0.008,31.415059 3.40868,-0.68258 V 91.789426 Z"
         id="path84629"
         style="stroke-width:0.167941" />
      <path
         d="m 461.96124,75.110165 -9.22891,5.550926 v 31.452619 l -3.40017,0.68062 -4.3714,0.87448 -1.45734,0.2916 V 80.661091 l -9.22892,5.55158 v 29.594439 l -3.88594,0.77706 -4.3714,0.87447 -0.97156,0.19485 V 86.212671 l -9.2289,5.550924 v 27.735925 l -12.27057,2.43745 -3.72914,19.78726 26.20017,3.90103 27.6559,4.11751 8.28818,1.23365 v -27.38167 -11.47678 -1.84998 z"
         fill="#868e96"
         id="path84631"
         style="stroke-width:0.167941" />
    </g>
    <text
       xml:space="preserve"
       style="font-style:normal;font-weight:normal;font-size:14.1111px;line-height:1.25;font-family:sans-serif;fill:#000000;fill-opacity:1;stroke:none;stroke-width:0.264583"
       x="357.88492"
       y="51.831551"
       id="text5934-9-9"><tspan
         sodipodi:role="line"
         id="tspan5932-0-6"
         style="font-style:normal;font-variant:normal;font-weight:normal;font-stretch:normal;font-size:14.1111px;font-family:'Roboto Mono';-inkscape-font-specification:'Roboto Mono';stroke-width:0.264583"
         x="357.88492"
         y="51.831551">build.suse.de</tspan></text>
    <text
       xml:space="preserve"
       style="font-size:16.9333px;line-height:1.25;font-family:Poppins;-inkscape-font-specification:Poppins;stroke-width:0.264583"
       x="403.90405"
       y="241.86412"
       id="text6606-0-2-4"><tspan
         sodipodi:role="line"
         id="tspan6604-6-0-7"
         style="font-size:16.9333px;stroke-width:0.264583"
         x="403.90405"
         y="241.86412">Python</tspan></text>
    <path
       fill-rule="evenodd"
       clip-rule="evenodd"
       d="m 374.63092,147.35073 15.06203,4.01476 1.70564,1.23336 v 17.68604 l -0.97094,1.25954 -16.08534,4.43458 -16.11161,-4.43458 -0.94416,-1.25954 v -17.68604 l 1.60061,-1.23336 15.03575,-4.01476 z m -0.23604,2.62401 -10.49614,2.62411 1.44322,0.52465 9.00046,2.36169 7.87213,-2.12546 2.4928,-0.76068 z m -14.48472,19.31303 13.12025,3.59495 v -15.03585 l -13.12025,-3.5162 z m 15.74426,-11.4409 v 15.03585 l 13.12026,-3.59495 v -15.03584 l -5.30059,1.45115 v 6.73586 l -2.62411,0.68234 v -6.69927 z"
       id="path2-74"
       style="stroke-width:2.62404" />
    <text
       xml:space="preserve"
       style="font-size:16.9333px;line-height:1.25;font-family:Poppins;-inkscape-font-specification:Poppins;stroke-width:0.264583"
       x="403.90405"
       y="165.02779"
       id="text6606-0-2-2"><tspan
         sodipodi:role="line"
         id="tspan6604-6-0-9"
         style="font-size:16.9333px;stroke-width:0.264583"
         x="403.90405"
         y="165.02779">OpenJDK</tspan></text>
    <path
       fill-rule="evenodd"
       clip-rule="evenodd"
       d="m 374.63092,224.18706 15.06203,4.01476 1.70564,1.23336 v 17.68604 l -0.97094,1.25954 -16.08534,4.43458 -16.11161,-4.43458 -0.94416,-1.25954 v -17.68604 l 1.60061,-1.23336 15.03575,-4.01476 z m -0.23604,2.62401 -10.49614,2.62411 1.44322,0.52465 9.00046,2.36169 7.87213,-2.12546 2.4928,-0.76068 z m -14.48472,19.31303 13.12025,3.59495 V 234.6832 l -13.12025,-3.5162 z m 15.74426,-11.4409 v 15.03585 l 13.12026,-3.59495 v -15.03584 l -5.30059,1.45115 v 6.73586 l -2.62411,0.68234 v -6.69927 z"
       id="path2-74-1"
       style="stroke-width:2.62404" />
    <text
       xml:space="preserve"
       style="font-size:16.9333px;line-height:1.25;font-family:Poppins;-inkscape-font-specification:Poppins;stroke-width:0.264583"
       x="403.90405"
       y="204.12965"
       id="text6606-0-2-5"><tspan
         sodipodi:role="line"
         id="tspan6604-6-0-25"
         style="font-size:16.9333px;stroke-width:0.264583"
         x="403.90405"
         y="204.12965">.Net</tspan></text>
    <path
       fill-rule="evenodd"
       clip-rule="evenodd"
       d="m 374.63092,186.45287 15.06203,4.01476 1.70564,1.23336 v 17.68604 l -0.97094,1.25954 -16.08534,4.43458 -16.11161,-4.43458 -0.94416,-1.25954 v -17.68604 l 1.60061,-1.23336 15.03575,-4.01476 z m -0.23604,2.62401 -10.49614,2.62411 1.44322,0.52465 9.00046,2.36169 7.87213,-2.12546 2.4928,-0.76068 z m -14.48472,19.31303 13.12025,3.59495 v -15.03585 l -13.12025,-3.5162 z m 15.74426,-11.4409 v 15.03585 l 13.12026,-3.59495 v -15.03584 l -5.30059,1.45115 v 6.73586 l -2.62411,0.68234 v -6.69927 z"
       id="path2-74-4"
       style="stroke-width:2.62404" />
  </g>
  <style
     type="text/css"
     id="style1092">
	.st0{fill:#737373;}
	.st1{fill:#F25022;}
	.st2{fill:#7FBA00;}
	.st3{fill:#00A4EF;}
	.st4{fill:#FFB900;}
</style>
  <style
     type="text/css"
     id="style2536">
	.st0{fill:#FAFAFA;}
	.st1{fill:#F0F0F0;}
	.st2{fill:#FFFFFF;}
	.st3{fill:#E24329;}
	.st4{fill:#FCA326;}
	.st5{fill:#FC6D26;}
	.st6{fill:#8C929D;}
	.st7{fill:#2E2E2E;}
	.st8{fill:none;stroke:#FCA326;stroke-width:16;stroke-linecap:round;stroke-linejoin:round;stroke-miterlimit:10;}
	.st9{fill:none;stroke:#FC6D26;stroke-width:16;stroke-linecap:round;stroke-linejoin:round;stroke-miterlimit:10;}
	.st10{fill:none;stroke:#E24329;stroke-width:16;stroke-linecap:round;stroke-linejoin:round;stroke-miterlimit:10;}
	.st11{fill:none;stroke:#F0F0F0;stroke-miterlimit:10;}
	.st12{fill:#231F20;}
	.st13{fill:none;stroke:#231F20;stroke-width:16;stroke-linecap:round;stroke-linejoin:round;stroke-miterlimit:10;}
	.st14{display:none;}
	.st15{display:inline;opacity:0.1;fill:#E828E3;}
	.st16{display:inline;}
	.st17{opacity:0.1;fill:#E828E3;}
	.st18{font-family:'SourceSansPro-Semibold';}
	.st19{font-size:24px;}
	.st20{display:inline;fill:#DB3B21;}
	.st21{display:inline;fill:#FC6D26;}
	.st22{display:inline;fill:#2E2E2E;}
	.st23{display:inline;fill:#6E49CB;}
	.st24{display:inline;fill:#380D75;}
	.st25{display:inline;fill:#FCA121;}
	.st26{opacity:0.6;fill:none;stroke:#231F20;stroke-width:2;stroke-miterlimit:10;stroke-dasharray:12,6;}
	.st27{fill:none;stroke:#444444;stroke-width:1.5339;stroke-miterlimit:10;}
</style>
</svg>
