<?xml version="1.0" encoding="UTF-8" standalone="no"?>
<!-- Created with Inkscape (http://www.inkscape.org/) -->

<svg
   width="309.9263mm"
   height="85.952118mm"
   viewBox="0 0 309.9263 85.952115"
   version="1.1"
   id="svg162655"
   inkscape:version="1.2.2 (b0a8486541, 2022-12-01)"
   sodipodi:docname="github_deploy_workflow.svg"
   xmlns:inkscape="http://www.inkscape.org/namespaces/inkscape"
   xmlns:sodipodi="http://sodipodi.sourceforge.net/DTD/sodipodi-0.dtd"
   xmlns="http://www.w3.org/2000/svg"
   xmlns:svg="http://www.w3.org/2000/svg">
  <sodipodi:namedview
     id="namedview162657"
     pagecolor="#ffffff"
     bordercolor="#666666"
     borderopacity="1.0"
     inkscape:showpageshadow="2"
     inkscape:pageopacity="0.0"
     inkscape:pagecheckerboard="0"
     inkscape:deskcolor="#d1d1d1"
     inkscape:document-units="mm"
     showgrid="false"
     inkscape:zoom="0.95497112"
     inkscape:cx="590.0702"
     inkscape:cy="225.66127"
     inkscape:window-width="1916"
     inkscape:window-height="1036"
     inkscape:window-x="0"
     inkscape:window-y="20"
     inkscape:window-maximized="1"
     inkscape:current-layer="layer1" />
  <defs
     id="defs162652" />
  <g
     inkscape:label="Layer 1"
     inkscape:groupmode="layer"
     id="layer1"
     transform="translate(-47.276143,-78.009024)">
    <path
       d="m 90.179286,101.61301 c 0,0.0751 -0.08631,0.13503 -0.195163,0.13503 -0.123846,0.011 -0.210176,-0.0489 -0.210176,-0.13503 0,-0.075 0.08631,-0.13504 0.195165,-0.13504 0.112603,-0.011 0.210174,0.0489 0.210174,0.13504 z m -1.167224,-0.16884 c -0.02627,0.075 0.0488,0.16131 0.161381,0.1839 0.09758,0.0375 0.210176,0 0.232693,-0.0751 0.02252,-0.075 -0.0488,-0.1613 -0.161381,-0.19516 -0.09758,-0.0263 -0.206423,0.011 -0.232695,0.0863 z m 1.658884,-0.0637 c -0.108837,0.0263 -0.183904,0.0976 -0.172644,0.1839 0.01139,0.0751 0.108837,0.12383 0.221437,0.0976 0.108836,-0.0263 0.183903,-0.0976 0.172643,-0.17269 -0.01139,-0.0713 -0.112603,-0.12016 -0.221436,-0.10877 z m 2.469562,-14.382008 c -5.205595,0 -9.187667,3.95206 -9.187667,9.157654 0,4.162214 2.619685,7.723944 6.361557,8.977474 0.480402,0.0864 0.649292,-0.21017 0.649292,-0.45412 0,-0.2327 -0.01139,-1.51628 -0.01139,-2.30442 0,0 -2.627192,0.56296 -3.178901,-1.11843 0,0 -0.427859,-1.09217 -1.043371,-1.37365 0,0 -0.859468,-0.589251 0.06006,-0.577989 0,0 0.934531,0.07496 1.44871,0.968309 0.821935,1.44872 2.199335,1.03211 2.736032,0.78442 0.08631,-0.60052 0.330277,-1.01711 0.600501,-1.264819 -2.098001,-0.232684 -4.214766,-0.536689 -4.214766,-4.147209 0,-1.032113 0.285237,-1.550044 0.885738,-2.210597 -0.09757,-0.243946 -0.416597,-1.249787 0.09758,-2.54837 0.784406,-0.243964 2.589661,1.013337 2.589661,1.013337 0.750627,-0.210178 1.55755,-0.319015 2.356966,-0.319015 0.799418,0 1.606341,0.108763 2.356968,0.319015 0,0 1.805255,-1.261049 2.589661,-1.013337 0.514177,1.302331 0.195162,2.304424 0.09758,2.54837 0.6005,0.664301 0.968306,1.182232 0.968306,2.210597 0,3.621764 -2.210593,3.910759 -4.308594,4.147209 0.345288,0.296489 0.638033,0.859469 0.638033,1.741459 0,1.2648 -0.01139,2.82985 -0.01139,3.13761 0,0.24396 0.172643,0.54045 0.649292,0.45414 3.753134,-1.24604 6.297754,-4.80777 6.297754,-8.969984 0,-5.205594 -4.222272,-9.157654 -9.427867,-9.157654 z M 87.600885,99.94296 c -0.0488,0.03748 -0.03753,0.12383 0.02629,0.19517 0.06006,0.0601 0.146371,0.0863 0.19516,0.0375 0.0488,-0.0375 0.03753,-0.12383 -0.02627,-0.19517 -0.06006,-0.06008 -0.146371,-0.08635 -0.195163,-0.03748 z m -0.405338,-0.304005 c -0.02627,0.04887 0.01139,0.108764 0.08631,0.146427 0.06006,0.03748 0.135109,0.02627 0.161382,-0.02627 0.02627,-0.04887 -0.01139,-0.108764 -0.08631,-0.146427 -0.07505,-0.0226 -0.135109,-0.01102 -0.161382,0.02627 z m 1.216013,1.336115 c -0.06006,0.0489 -0.03753,0.16131 0.0488,0.2327 0.08631,0.0864 0.195162,0.0976 0.243953,0.0375 0.0488,-0.0489 0.02627,-0.1613 -0.0488,-0.2327 -0.08257,-0.0864 -0.195162,-0.0976 -0.243953,-0.0375 z m -0.427856,-0.5517 c -0.06006,0.0375 -0.06006,0.13504 0,0.22143 0.06004,0.0863 0.161382,0.12382 0.210175,0.0863 0.06006,-0.0489 0.06006,-0.14643 0,-0.23269 -0.05253,-0.0863 -0.15012,-0.12383 -0.210175,-0.0751 z"
       id="path166367"
       style="stroke-width:0.0375313" />
    <path
       style="fill:none;stroke:#000000;stroke-width:1.05833;stroke-linecap:butt;stroke-linejoin:miter;stroke-dasharray:none;stroke-opacity:1"
       d="m 51.717844,148.87191 91.278296,6e-5"
       id="path170728"
       sodipodi:nodetypes="cc" />
    <text
       xml:space="preserve"
       style="font-size:7.05556px;line-height:1.25;font-family:Poppins;-inkscape-font-specification:Poppins;stroke-width:0.264583"
       x="80.319153"
       y="159.0954"
       id="text170732"><tspan
         sodipodi:role="line"
         id="tspan170730"
         style="font-size:7.05556px;stroke-width:0.264583"
         x="80.319153"
         y="159.0954">main</tspan></text>
    <text
       xml:space="preserve"
       style="font-size:7.05556px;line-height:1.25;font-family:Poppins;-inkscape-font-specification:Poppins;stroke-width:0.264583"
       x="72.093437"
       y="117.77434"
       id="text170732-4"><tspan
         sodipodi:role="line"
         id="tspan170730-5"
         style="font-size:7.05556px;stroke-width:0.264583"
         x="72.093437"
         y="117.77434">feature-XYZ</tspan></text>
    <path
       style="fill:none;stroke:#000000;stroke-width:1.05833;stroke-linecap:butt;stroke-linejoin:miter;stroke-dasharray:none;stroke-opacity:1"
       d="m 62.728133,148.87191 c 7.948513,0 7.688805,-22.487 21.245884,-22.487 h 16.305563"
       id="path172226"
       sodipodi:nodetypes="ccc" />
    <path
       style="fill:none;stroke:#000000;stroke-width:1.05833;stroke-linecap:butt;stroke-linejoin:miter;stroke-dasharray:none;stroke-opacity:1"
       d="m 119.31924,148.87191 c -7.94851,0 -7.68881,-22.487 -21.245888,-22.487 H 81.767788"
       id="path172226-6"
       sodipodi:nodetypes="ccc" />
    <circle
       style="fill:#ffffff;fill-opacity:1;stroke:#000000;stroke-width:1.05833;stroke-dasharray:none;stop-color:#000000"
       id="path170786-8"
       cx="99.604462"
       cy="126.50466"
       r="2.391181" />
    <circle
       style="fill:#ffffff;fill-opacity:1;stroke:#000000;stroke-width:1.05833;stroke-dasharray:none;stop-color:#000000"
       id="path170786"
       cx="62.657452"
       cy="148.97444"
       r="2.391181" />
    <circle
       style="fill:#ffffff;fill-opacity:1;stroke:#000000;stroke-width:1.05833;stroke-dasharray:none;stop-color:#000000"
       id="path170786-3"
       cx="118.23386"
       cy="148.97444"
       r="2.391181" />
    <circle
       style="fill:#ffffff;fill-opacity:1;stroke:#000000;stroke-width:1.05833;stroke-dasharray:none;stop-color:#000000"
       id="path170786-7"
       cx="82.202332"
       cy="126.31716"
       r="2.391181" />
    <rect
       style="fill:none;fill-opacity:1;stroke:#000000;stroke-width:0.79375;stroke-dasharray:1.5875, 1.5875;stroke-dashoffset:0;stroke-opacity:1;stop-color:#000000"
       id="rect200276"
       width="228.85805"
       height="85.158371"
       x="47.674324"
       y="78.405899"
       ry="6.8683019" />
    <path
       fill-rule="evenodd"
       clip-rule="evenodd"
       d="m 126.30843,131.74062 a 2.2002897,2.2002897 0 0 1 -0.99,0.8157 c -0.13108,0.0531 -0.4052,0.12209 -0.4052,0.12209 v 4.43066 a 2.2206381,2.2206381 0 0 1 1.39698,0.93957 c 0.24142,0.3645 0.37069,0.79182 0.37069,1.22798 0.007,0.30345 -0.0505,0.60514 -0.16819,0.88472 a 2.1985202,2.1985202 0 0 1 -2.07644,1.36069 2.1958661,2.1958661 0 0 1 -1.22798,-0.3707 2.2002897,2.2002897 0 0 1 -0.93958,-2.26929 c 0.0839,-0.42997 0.29292,-0.82455 0.60162,-1.13509 0.30864,-0.30346 0.69893,-0.51226 1.12271,-0.60161 v -4.50144 a 2.3002626,2.3002626 0 0 1 -1.12271,-0.60161 2.2144451,2.2144451 0 0 1 -0.60162,-1.13509 2.2002897,2.2002897 0 0 1 0.93781,-2.26929 2.2029438,2.2029438 0 0 1 1.22975,-0.37247 2.2153298,2.2153298 0 0 1 1.59868,0.64496 2.205598,2.205598 0 0 1 0.64495,1.60134 c 0.002,0.43705 -0.1274,0.86525 -0.37157,1.22887 z m -0.66886,6.95476 a 1.3270746,1.3270746 0 0 0 -0.48836,-0.51226 1.2828388,1.2828388 0 0 0 -0.6812,-0.18578 1.322651,1.322651 0 0 0 -1.30054,1.58364 1.3208816,1.3208816 0 0 0 1.04397,1.04308 c 0.2548,0.0514 0.51842,0.0264 0.76085,-0.0708 0.24409,-0.10352 0.45295,-0.27603 0.60158,-0.49544 0.13275,-0.19996 0.20799,-0.43351 0.22036,-0.67238 a 1.3359218,1.3359218 0 0 0 -0.15649,-0.69008 z m -1.90389,-7.1202 c 0.21834,0.14244 0.47421,0.22115 0.73433,0.22115 0.23975,0 0.47595,-0.0663 0.6812,-0.18668 a 1.3394606,1.3394606 0 0 0 0.64499,-1.20232 1.3385759,1.3385759 0 0 0 -0.22103,-0.67239 1.3721951,1.3721951 0 0 0 -0.60162,-0.49544 1.3182274,1.3182274 0 0 0 -0.76085,-0.0708 1.3217663,1.3217663 0 0 0 -1.04306,1.04396 c -0.0515,0.2548 -0.0268,0.51845 0.0709,0.76086 0.10366,0.2442 0.27587,0.45297 0.49545,0.60161 z m 9.13822,5.57017 c 0.42467,0.0858 0.81573,0.29639 1.12273,0.60161 0.41225,0.41582 0.64494,0.97938 0.6414,1.56241 0.002,0.43616 -0.1274,0.86436 -0.37156,1.22798 a 2.2109062,2.2109062 0 0 1 -4.00953,-0.79535 2.211791,2.211791 0 0 1 0.944,-2.2693 c 0.23606,-0.16191 0.50514,-0.27249 0.78649,-0.32736 v -4.9084 a 1.3270746,1.3270746 0 0 0 -1.32706,-1.32618 h -1.63496 l 1.12269,1.12358 -0.62813,0.62727 -1.88357,-1.88357 v -0.61929 l 1.88444,-1.88446 0.62816,0.62904 -1.12271,1.12359 h 1.63672 a 2.1976355,2.1976355 0 0 1 2.04548,1.36335 c 0.11068,0.26717 0.16719,0.55561 0.16552,0.84667 z m 0.49282,3.10447 a 1.3208816,1.3208816 0 0 0 0.16886,-1.67211 1.3730798,1.3730798 0 0 0 -0.60162,-0.49456 1.3182274,1.3182274 0 0 0 -0.76085,-0.0708 1.3208816,1.3208816 0 0 0 -1.04307,1.04396 1.3182274,1.3182274 0 0 0 0.0709,0.76087 1.3235357,1.3235357 0 0 0 2.16578,0.43351 z"
       id="path14759"
       style="stroke-width:0.884719" />
  </g>
</svg>
