<?xml version="1.0" encoding="UTF-8" standalone="no"?>
<!-- Created with Inkscape (http://www.inkscape.org/) -->

<svg
   width="309.9263mm"
   height="85.952118mm"
   viewBox="0 0 309.9263 85.952115"
   version="1.1"
   id="svg162655"
   inkscape:version="1.2.2 (b0a8486541, 2022-12-01)"
   sodipodi:docname="github_deploy_workflow_2.svg"
   xmlns:inkscape="http://www.inkscape.org/namespaces/inkscape"
   xmlns:sodipodi="http://sodipodi.sourceforge.net/DTD/sodipodi-0.dtd"
   xmlns="http://www.w3.org/2000/svg"
   xmlns:svg="http://www.w3.org/2000/svg">
  <sodipodi:namedview
     id="namedview162657"
     pagecolor="#ffffff"
     bordercolor="#666666"
     borderopacity="1.0"
     inkscape:showpageshadow="2"
     inkscape:pageopacity="0.0"
     inkscape:pagecheckerboard="0"
     inkscape:deskcolor="#d1d1d1"
     inkscape:document-units="mm"
     showgrid="false"
     inkscape:zoom="0.95497112"
     inkscape:cx="591.11735"
     inkscape:cy="225.66127"
     inkscape:window-width="1916"
     inkscape:window-height="1036"
     inkscape:window-x="0"
     inkscape:window-y="20"
     inkscape:window-maximized="1"
     inkscape:current-layer="layer1" />
  <defs
     id="defs162652">
    <marker
       style="overflow:visible"
       id="marker192932"
       refX="0"
       refY="0"
       orient="auto-start-reverse"
       inkscape:stockid="Arrow2"
       markerWidth="7.6999998"
       markerHeight="5.5999999"
       viewBox="0 0 7.7 5.6"
       inkscape:isstock="true"
       inkscape:collect="always"
       preserveAspectRatio="xMidYMid">
      <path
         transform="scale(0.7)"
         d="M -2,-4 9,0 -2,4 c 2,-2.33 2,-5.66 0,-8 z"
         style="fill:context-stroke;fill-rule:evenodd;stroke:none"
         id="path192930" />
    </marker>
    <marker
       style="overflow:visible"
       id="marker192932-3-6-5-3"
       refX="0"
       refY="0"
       orient="auto-start-reverse"
       inkscape:stockid="Arrow2"
       markerWidth="7.6999998"
       markerHeight="5.5999999"
       viewBox="0 0 7.7 5.6"
       inkscape:isstock="true"
       inkscape:collect="always"
       preserveAspectRatio="xMidYMid">
      <path
         transform="scale(0.7)"
         d="M -2,-4 9,0 -2,4 c 2,-2.33 2,-5.66 0,-8 z"
         style="fill:context-stroke;fill-rule:evenodd;stroke:none"
         id="path192930-2-1-6-7" />
    </marker>
    <marker
       style="overflow:visible"
       id="marker192932-6"
       refX="0"
       refY="0"
       orient="auto-start-reverse"
       inkscape:stockid="Arrow2"
       markerWidth="7.6999998"
       markerHeight="5.5999999"
       viewBox="0 0 7.7 5.6"
       inkscape:isstock="true"
       inkscape:collect="always"
       preserveAspectRatio="xMidYMid">
      <path
         transform="scale(0.7)"
         d="M -2,-4 9,0 -2,4 c 2,-2.33 2,-5.66 0,-8 z"
         style="fill:context-stroke;fill-rule:evenodd;stroke:none"
         id="path192930-26" />
    </marker>
    <marker
       style="overflow:visible"
       id="marker192932-3-6-5-3-8"
       refX="0"
       refY="0"
       orient="auto-start-reverse"
       inkscape:stockid="Arrow2"
       markerWidth="7.6999998"
       markerHeight="5.5999999"
       viewBox="0 0 7.7 5.6"
       inkscape:isstock="true"
       inkscape:collect="always"
       preserveAspectRatio="xMidYMid">
      <path
         transform="scale(0.7)"
         d="M -2,-4 9,0 -2,4 c 2,-2.33 2,-5.66 0,-8 z"
         style="fill:context-stroke;fill-rule:evenodd;stroke:none"
         id="path192930-2-1-6-7-7" />
    </marker>
  </defs>
  <g
     inkscape:label="Layer 1"
     inkscape:groupmode="layer"
     id="layer1"
     transform="translate(-47.276143,-78.009024)">
    <path
       d="m 90.179286,101.61301 c 0,0.0751 -0.08631,0.13503 -0.195163,0.13503 -0.123846,0.011 -0.210176,-0.0489 -0.210176,-0.13503 0,-0.075 0.08631,-0.13504 0.195165,-0.13504 0.112603,-0.011 0.210174,0.0489 0.210174,0.13504 z m -1.167224,-0.16884 c -0.02627,0.075 0.0488,0.16131 0.161381,0.1839 0.09758,0.0375 0.210176,0 0.232693,-0.0751 0.02252,-0.075 -0.0488,-0.1613 -0.161381,-0.19516 -0.09758,-0.0263 -0.206423,0.011 -0.232695,0.0863 z m 1.658884,-0.0637 c -0.108837,0.0263 -0.183904,0.0976 -0.172644,0.1839 0.01139,0.0751 0.108837,0.12383 0.221437,0.0976 0.108836,-0.0263 0.183903,-0.0976 0.172643,-0.17269 -0.01139,-0.0713 -0.112603,-0.12016 -0.221436,-0.10877 z m 2.469562,-14.382008 c -5.205595,0 -9.187667,3.95206 -9.187667,9.157654 0,4.162214 2.619685,7.723944 6.361557,8.977474 0.480402,0.0864 0.649292,-0.21017 0.649292,-0.45412 0,-0.2327 -0.01139,-1.51628 -0.01139,-2.30442 0,0 -2.627192,0.56296 -3.178901,-1.11843 0,0 -0.427859,-1.09217 -1.043371,-1.37365 0,0 -0.859468,-0.589251 0.06006,-0.577989 0,0 0.934531,0.07496 1.44871,0.968309 0.821935,1.44872 2.199335,1.03211 2.736032,0.78442 0.08631,-0.60052 0.330277,-1.01711 0.600501,-1.264819 -2.098001,-0.232684 -4.214766,-0.536689 -4.214766,-4.147209 0,-1.032113 0.285237,-1.550044 0.885738,-2.210597 -0.09757,-0.243946 -0.416597,-1.249787 0.09758,-2.54837 0.784406,-0.243964 2.589661,1.013337 2.589661,1.013337 0.750627,-0.210178 1.55755,-0.319015 2.356966,-0.319015 0.799418,0 1.606341,0.108763 2.356968,0.319015 0,0 1.805255,-1.261049 2.589661,-1.013337 0.514177,1.302331 0.195162,2.304424 0.09758,2.54837 0.6005,0.664301 0.968306,1.182232 0.968306,2.210597 0,3.621764 -2.210593,3.910759 -4.308594,4.147209 0.345288,0.296489 0.638033,0.859469 0.638033,1.741459 0,1.2648 -0.01139,2.82985 -0.01139,3.13761 0,0.24396 0.172643,0.54045 0.649292,0.45414 3.753134,-1.24604 6.297754,-4.80777 6.297754,-8.969984 0,-5.205594 -4.222272,-9.157654 -9.427867,-9.157654 z M 87.600885,99.94296 c -0.0488,0.03748 -0.03753,0.12383 0.02629,0.19517 0.06006,0.0601 0.146371,0.0863 0.19516,0.0375 0.0488,-0.0375 0.03753,-0.12383 -0.02627,-0.19517 -0.06006,-0.06008 -0.146371,-0.08635 -0.195163,-0.03748 z m -0.405338,-0.304005 c -0.02627,0.04887 0.01139,0.108764 0.08631,0.146427 0.06006,0.03748 0.135109,0.02627 0.161382,-0.02627 0.02627,-0.04887 -0.01139,-0.108764 -0.08631,-0.146427 -0.07505,-0.0226 -0.135109,-0.01102 -0.161382,0.02627 z m 1.216013,1.336115 c -0.06006,0.0489 -0.03753,0.16131 0.0488,0.2327 0.08631,0.0864 0.195162,0.0976 0.243953,0.0375 0.0488,-0.0489 0.02627,-0.1613 -0.0488,-0.2327 -0.08257,-0.0864 -0.195162,-0.0976 -0.243953,-0.0375 z m -0.427856,-0.5517 c -0.06006,0.0375 -0.06006,0.13504 0,0.22143 0.06004,0.0863 0.161382,0.12382 0.210175,0.0863 0.06006,-0.0489 0.06006,-0.14643 0,-0.23269 -0.05253,-0.0863 -0.15012,-0.12383 -0.210175,-0.0751 z"
       id="path166367"
       style="stroke-width:0.0375313" />
    <path
       style="fill:none;stroke:#000000;stroke-width:1.05833;stroke-linecap:butt;stroke-linejoin:miter;stroke-dasharray:none;stroke-opacity:1"
       d="m 51.717844,148.87191 91.278296,6e-5"
       id="path170728"
       sodipodi:nodetypes="cc" />
    <text
       xml:space="preserve"
       style="font-size:7.05556px;line-height:1.25;font-family:Poppins;-inkscape-font-specification:Poppins;stroke-width:0.264583"
       x="80.319153"
       y="159.0954"
       id="text170732"><tspan
         sodipodi:role="line"
         id="tspan170730"
         style="font-size:7.05556px;stroke-width:0.264583"
         x="80.319153"
         y="159.0954">main</tspan></text>
    <text
       xml:space="preserve"
       style="font-size:7.05556px;line-height:1.25;font-family:Poppins;-inkscape-font-specification:Poppins;stroke-width:0.264583"
       x="72.093437"
       y="117.77434"
       id="text170732-4"><tspan
         sodipodi:role="line"
         id="tspan170730-5"
         style="font-size:7.05556px;stroke-width:0.264583"
         x="72.093437"
         y="117.77434">feature-XYZ</tspan></text>
    <text
       xml:space="preserve"
       style="font-size:7.05556px;line-height:1.25;font-family:Poppins;-inkscape-font-specification:Poppins;stroke-width:0.264583"
       x="176.77495"
       y="92.230186"
       id="text170732-4-0"><tspan
         sodipodi:role="line"
         id="tspan170730-5-6"
         style="font-size:7.05556px;text-align:center;text-anchor:middle;stroke-width:0.264583"
         x="176.77495"
         y="92.230186">render</tspan><tspan
         sodipodi:role="line"
         style="font-size:7.05556px;text-align:center;text-anchor:middle;stroke-width:0.264583"
         x="176.77495"
         y="101.04964"
         id="tspan198587">templates</tspan></text>
    <path
       style="fill:none;stroke:#000000;stroke-width:1.05833;stroke-linecap:butt;stroke-linejoin:miter;stroke-dasharray:none;stroke-opacity:1"
       d="m 62.728133,148.87191 c 7.948513,0 7.688805,-22.487 21.245884,-22.487 h 16.305563"
       id="path172226"
       sodipodi:nodetypes="ccc" />
    <path
       style="fill:none;stroke:#000000;stroke-width:1.05833;stroke-linecap:butt;stroke-linejoin:miter;stroke-dasharray:none;stroke-opacity:1"
       d="m 119.31924,148.87191 c -7.94851,0 -7.68881,-22.487 -21.245888,-22.487 H 81.767788"
       id="path172226-6"
       sodipodi:nodetypes="ccc" />
    <circle
       style="fill:#ffffff;fill-opacity:1;stroke:#000000;stroke-width:1.05833;stroke-dasharray:none;stop-color:#000000"
       id="path170786-8"
       cx="99.604462"
       cy="126.50466"
       r="2.391181" />
    <circle
       style="fill:#ffffff;fill-opacity:1;stroke:#000000;stroke-width:1.05833;stroke-dasharray:none;stop-color:#000000"
       id="path170786"
       cx="62.657452"
       cy="148.97444"
       r="2.391181" />
    <circle
       style="fill:#ffffff;fill-opacity:1;stroke:#000000;stroke-width:1.05833;stroke-dasharray:none;stop-color:#000000"
       id="path170786-3"
       cx="118.23386"
       cy="148.97444"
       r="2.391181" />
    <circle
       style="fill:#ffffff;fill-opacity:1;stroke:#000000;stroke-width:1.05833;stroke-dasharray:none;stop-color:#000000"
       id="path170786-7"
       cx="82.202332"
       cy="126.31716"
       r="2.391181" />
    <path
       style="fill:none;stroke:#000000;stroke-width:1.05833;stroke-linecap:butt;stroke-linejoin:miter;stroke-dasharray:none;stroke-opacity:1"
       d="m 187.43927,137.08539 76.66866,6e-5"
       id="path170728-1"
       sodipodi:nodetypes="cc" />
    <path
       style="fill:none;stroke:#000000;stroke-width:1.05833;stroke-linecap:butt;stroke-linejoin:miter;stroke-dasharray:none;stroke-opacity:1"
       d="m 203.54032,137.08539 c 7.94851,0 7.6888,-22.487 21.24588,-22.487"
       id="path172226-2"
       sodipodi:nodetypes="cc" />
    <path
       style="fill:none;stroke:#000000;stroke-width:1.05833;stroke-linecap:butt;stroke-linejoin:miter;stroke-dasharray:3.17499, 3.17499;stroke-dashoffset:0;stroke-opacity:1;marker-start:url(#marker192932)"
       d="m 241.59603,132.43431 c -6.79696,-5.90203 -3.77258,-17.83592 -17.32966,-17.83592"
       id="path172226-2-3"
       sodipodi:nodetypes="cc" />
    <circle
       style="fill:#ffffff;fill-opacity:1;stroke:#000000;stroke-width:1.05833;stroke-dasharray:none;stop-color:#000000"
       id="path170786-0"
       cx="203.46964"
       cy="137.18794"
       r="2.391181" />
    <circle
       style="fill:#ffffff;fill-opacity:1;stroke:#000000;stroke-width:1.05833;stroke-dasharray:none;stop-color:#000000"
       id="path170786-7-9"
       cx="223.01453"
       cy="114.53065"
       r="2.391181" />
    <g
       id="g114734"
       transform="matrix(0.06009075,0,0,0.06009075,316.68784,84.136652)">
      <path
         fill="#636a72"
         d="M 370.03711,29.257812 V 238.60156 249.61914 481 L 512,425.9082 503.95117,308.08594 393.17383,249.59375 V 62.310547 Z M 260.13086,62.816406 V 260.58984 l 20.24609,-4.05273 V 97.017578 Z m -109.85547,32.703125 -0.0508,187.060549 20.29687,-4.06446 v -149.9414 z"
         id="path114232" />
      <path
         d="m 370.03711,29.257812 -54.9534,33.0529 V 249.59485 l -20.24619,4.05275 -26.02943,5.20706 -8.67777,1.73633 V 62.310712 L 205.17691,95.367517 V 271.58715 l -23.13878,4.62697 -26.02942,5.20706 -5.78519,1.16016 V 95.367517 L 95.270119,128.42041 V 293.57359 L 22.205302,308.08733 1.1313e-4,425.91018 156.00871,449.13881 l 164.6766,24.5177 49.3518,7.34574 V 317.95847 249.62024 238.60456 Z"
         fill="#868e96"
         id="path114234" />
    </g>
    <path
       style="fill:none;stroke:#000000;stroke-width:0.79375;stroke-linecap:butt;stroke-linejoin:miter;stroke-dasharray:none;stroke-opacity:1;marker-end:url(#marker192932-6)"
       d="m 140.4332,134.09486 c 12.62752,0 40.62704,-9.50284 53.9309,-9.50284"
       id="path192874-1"
       sodipodi:nodetypes="cc" />
    <path
       style="fill:none;stroke:#000000;stroke-width:0.79375;stroke-linecap:butt;stroke-linejoin:miter;stroke-dasharray:none;stroke-opacity:1;marker-end:url(#marker192932-3-6-5-3)"
       d="m 266.46737,122.11573 h 44.05489"
       id="path192874-0-5-9-4"
       sodipodi:nodetypes="cc" />
    <path
       style="fill:none;stroke:#000000;stroke-width:0.79375;stroke-linecap:butt;stroke-linejoin:miter;stroke-dasharray:none;stroke-opacity:1;marker-end:url(#marker192932-3-6-5-3-8)"
       d="M 315.52288,128.37913 H 271.46799"
       id="path192874-0-5-9-4-9"
       sodipodi:nodetypes="cc" />
    <text
       xml:space="preserve"
       style="font-style:normal;font-weight:normal;font-size:7.05556px;line-height:1.25;font-family:sans-serif;fill:#000000;fill-opacity:1;stroke:none;stroke-width:0.264583"
       x="205.4016"
       y="104.68688"
       id="text5934-9-9-5"><tspan
         sodipodi:role="line"
         id="tspan5932-0-6-4"
         style="font-style:normal;font-variant:normal;font-weight:normal;font-stretch:normal;font-size:7.05556px;font-family:'Roboto Mono';-inkscape-font-specification:'Roboto Mono';stroke-width:0.264583"
         x="205.4016"
         y="104.68688">for-deploy-4</tspan></text>
    <text
       xml:space="preserve"
       style="font-style:normal;font-weight:normal;font-size:7.05556px;line-height:1.25;font-family:sans-serif;fill:#000000;fill-opacity:1;stroke:none;stroke-width:0.264583"
       x="211.67793"
       y="149.38995"
       id="text5934-9-9-5-6"><tspan
         sodipodi:role="line"
         id="tspan5932-0-6-4-0"
         style="font-style:normal;font-variant:normal;font-weight:normal;font-stretch:normal;font-size:7.05556px;font-family:'Roboto Mono';-inkscape-font-specification:'Roboto Mono';stroke-width:0.264583"
         x="211.67793"
         y="149.38995">sle15-sp4</tspan></text>
    <text
       xml:space="preserve"
       style="font-style:normal;font-weight:normal;font-size:7.05556px;line-height:1.25;font-family:sans-serif;text-align:center;text-anchor:middle;fill:#000000;fill-opacity:1;stroke:none;stroke-width:0.264583"
       x="331.87784"
       y="124.71307"
       id="text5934-9-9-5-4"><tspan
         sodipodi:role="line"
         id="tspan5932-0-6-4-7"
         style="font-style:normal;font-variant:normal;font-weight:normal;font-stretch:normal;font-size:7.05556px;font-family:'Roboto Mono';-inkscape-font-specification:'Roboto Mono';text-align:center;text-anchor:middle;stroke-width:0.264583"
         x="331.87784"
         y="124.71307">test </tspan><tspan
         sodipodi:role="line"
         style="font-style:normal;font-variant:normal;font-weight:normal;font-stretch:normal;font-size:7.05556px;font-family:'Roboto Mono';-inkscape-font-specification:'Roboto Mono';text-align:center;text-anchor:middle;stroke-width:0.264583"
         x="331.87784"
         y="133.60057"
         id="tspan198585">project</tspan></text>
    <rect
       style="fill:none;fill-opacity:1;stroke:#000000;stroke-width:0.79375;stroke-dasharray:1.5875, 1.5875;stroke-dashoffset:0;stroke-opacity:1;stop-color:#000000"
       id="rect200276"
       width="228.85805"
       height="85.158371"
       x="47.674324"
       y="78.405899"
       ry="6.8683019" />
    <rect
       style="fill:none;fill-opacity:1;stroke:#000000;stroke-width:0.79375;stroke-dasharray:1.5875, 1.5875;stroke-dashoffset:0;stroke-opacity:1;stop-color:#000000"
       id="rect200276-4"
       width="50.170956"
       height="61.428551"
       x="306.63461"
       y="78.852432"
       ry="6.8683019" />
    <path
       fill-rule="evenodd"
       clip-rule="evenodd"
       d="m 141.81525,97.839091 h 3.273 l 0.82459,1.268595 h -4.73187 l -0.63429,-0.634297 V 87.056043 l 0.63429,-0.634298 h 15.22312 l 0.63429,0.634298 v 6.051192 l -1.26857,-2.220036 v -3.196857 h -13.95456 z m 7.02801,1.268595 -1.78871,4.402014 h 2.79094 l 7.14217,-7.319779 -0.9261,-2.156612 h -2.0678 l 1.04025,-1.852144 -1.05291,-1.953638 h -3.64089 l -1.16708,0.74847 -2.89239,6.342972 1.15441,1.788717 z m 1.49695,-7.611562 h 3.64089 l -2.37227,3.805782 h 4.45273 l -7.3071,7.408574 2.14394,-4.871389 h -3.46325 z m -3.56476,2.537185 h -3.69157 v -1.268592 h 4.26248 z m -1.14171,2.53719 h -2.54986 v -1.268593 h 3.12072 z"
       id="path5377"
       style="stroke-width:1.26859" />
    <path
       fill-rule="evenodd"
       clip-rule="evenodd"
       d="m 126.30843,131.74062 a 2.2002897,2.2002897 0 0 1 -0.99,0.8157 c -0.13108,0.0531 -0.4052,0.12209 -0.4052,0.12209 v 4.43066 a 2.2206381,2.2206381 0 0 1 1.39698,0.93957 c 0.24142,0.3645 0.37069,0.79182 0.37069,1.22798 0.007,0.30345 -0.0505,0.60514 -0.16819,0.88472 a 2.1985202,2.1985202 0 0 1 -2.07644,1.36069 2.1958661,2.1958661 0 0 1 -1.22798,-0.3707 2.2002897,2.2002897 0 0 1 -0.93958,-2.26929 c 0.0839,-0.42997 0.29292,-0.82455 0.60162,-1.13509 0.30864,-0.30346 0.69893,-0.51226 1.12271,-0.60161 v -4.50144 a 2.3002626,2.3002626 0 0 1 -1.12271,-0.60161 2.2144451,2.2144451 0 0 1 -0.60162,-1.13509 2.2002897,2.2002897 0 0 1 0.93781,-2.26929 2.2029438,2.2029438 0 0 1 1.22975,-0.37247 2.2153298,2.2153298 0 0 1 1.59868,0.64496 2.205598,2.205598 0 0 1 0.64495,1.60134 c 0.002,0.43705 -0.1274,0.86525 -0.37157,1.22887 z m -0.66886,6.95476 a 1.3270746,1.3270746 0 0 0 -0.48836,-0.51226 1.2828388,1.2828388 0 0 0 -0.6812,-0.18578 1.322651,1.322651 0 0 0 -1.30054,1.58364 1.3208816,1.3208816 0 0 0 1.04397,1.04308 c 0.2548,0.0514 0.51842,0.0264 0.76085,-0.0708 0.24409,-0.10352 0.45295,-0.27603 0.60158,-0.49544 0.13275,-0.19996 0.20799,-0.43351 0.22036,-0.67238 a 1.3359218,1.3359218 0 0 0 -0.15649,-0.69008 z m -1.90389,-7.1202 c 0.21834,0.14244 0.47421,0.22115 0.73433,0.22115 0.23975,0 0.47595,-0.0663 0.6812,-0.18668 a 1.3394606,1.3394606 0 0 0 0.64499,-1.20232 1.3385759,1.3385759 0 0 0 -0.22103,-0.67239 1.3721951,1.3721951 0 0 0 -0.60162,-0.49544 1.3182274,1.3182274 0 0 0 -0.76085,-0.0708 1.3217663,1.3217663 0 0 0 -1.04306,1.04396 c -0.0515,0.2548 -0.0268,0.51845 0.0709,0.76086 0.10366,0.2442 0.27587,0.45297 0.49545,0.60161 z m 9.13822,5.57017 c 0.42467,0.0858 0.81573,0.29639 1.12273,0.60161 0.41225,0.41582 0.64494,0.97938 0.6414,1.56241 0.002,0.43616 -0.1274,0.86436 -0.37156,1.22798 a 2.2109062,2.2109062 0 0 1 -4.00953,-0.79535 2.211791,2.211791 0 0 1 0.944,-2.2693 c 0.23606,-0.16191 0.50514,-0.27249 0.78649,-0.32736 v -4.9084 a 1.3270746,1.3270746 0 0 0 -1.32706,-1.32618 h -1.63496 l 1.12269,1.12358 -0.62813,0.62727 -1.88357,-1.88357 v -0.61929 l 1.88444,-1.88446 0.62816,0.62904 -1.12271,1.12359 h 1.63672 a 2.1976355,2.1976355 0 0 1 2.04548,1.36335 c 0.11068,0.26717 0.16719,0.55561 0.16552,0.84667 z m 0.49282,3.10447 a 1.3208816,1.3208816 0 0 0 0.16886,-1.67211 1.3730798,1.3730798 0 0 0 -0.60162,-0.49456 1.3182274,1.3182274 0 0 0 -0.76085,-0.0708 1.3208816,1.3208816 0 0 0 -1.04307,1.04396 1.3182274,1.3182274 0 0 0 0.0709,0.76087 1.3235357,1.3235357 0 0 0 2.16578,0.43351 z"
       id="path14759"
       style="stroke-width:0.884719" />
    <path
       fill-rule="evenodd"
       clip-rule="evenodd"
       d="m 253.56673,121.09851 a 1.959869,1.959869 0 0 1 -0.88183,0.72658 c -0.11676,0.0473 -0.36093,0.10874 -0.36093,0.10874 v 3.94654 a 1.9779941,1.9779941 0 0 1 1.24433,0.83691 c 0.21505,0.32468 0.33019,0.70529 0.33019,1.0938 0.006,0.27014 -0.045,0.53901 -0.14981,0.78803 a 1.9582929,1.9582929 0 0 1 -1.84955,1.21202 1.9559288,1.9559288 0 0 1 -1.0938,-0.33019 1.959869,1.959869 0 0 1 -0.83692,-2.02132 c 0.0748,-0.38299 0.26091,-0.73448 0.53588,-1.01109 0.27491,-0.27014 0.62256,-0.45626 1.00005,-0.53585 v -4.00959 a 2.0489182,2.0489182 0 0 1 -1.00005,-0.53586 1.9724777,1.9724777 0 0 1 -0.53588,-1.01107 1.959869,1.959869 0 0 1 0.83534,-2.02133 1.9622331,1.9622331 0 0 1 1.09538,-0.33177 1.9732658,1.9732658 0 0 1 1.42399,0.57448 1.9645973,1.9645973 0 0 1 0.57448,1.42636 c 0.002,0.3893 -0.11348,0.77071 -0.33096,1.0946 z m -0.59578,6.19483 a 1.1820682,1.1820682 0 0 0 -0.435,-0.4563 1.1426659,1.1426659 0 0 0 -0.60677,-0.1656 1.1781279,1.1781279 0 0 0 -1.15843,1.41062 1.1765518,1.1765518 0 0 0 0.92989,0.92909 c 0.22696,0.0456 0.46178,0.0238 0.67772,-0.0631 0.21742,-0.092 0.40346,-0.24572 0.53585,-0.44129 0.11824,-0.17811 0.18526,-0.38615 0.19628,-0.59893 a 1.1899486,1.1899486 0 0 0 -0.13939,-0.61466 z m -1.69587,-6.34219 c 0.1945,0.12688 0.42241,0.19699 0.6541,0.19699 0.21355,0 0.42395,-0.0591 0.60677,-0.16629 a 1.1931008,1.1931008 0 0 0 0.57451,-1.07095 1.1923128,1.1923128 0 0 0 -0.19688,-0.59891 1.2222585,1.2222585 0 0 0 -0.53588,-0.44131 1.1741877,1.1741877 0 0 0 -0.67771,-0.0631 1.1773399,1.1773399 0 0 0 -0.9291,0.92989 c -0.0456,0.22696 -0.0238,0.4618 0.0632,0.67772 0.0923,0.21752 0.24572,0.40349 0.44131,0.53588 z m 8.13972,1.78019 h -0.78961 v -1.18995 a 1.1820682,1.1820682 0 0 0 -1.18205,-1.18207 h -1.45631 l 1.00001,1.00082 -0.5595,0.55873 -1.67776,-1.67775 v -0.55163 l 1.67853,-1.67854 0.55953,0.5603 -1.00004,1.00082 h 1.45789 a 1.9575049,1.9575049 0 0 1 1.82197,1.21437 c 0.0986,0.23798 0.14892,0.4949 0.14743,0.75416 v 1.19074 z m -0.0298,7.09242 h -0.78804 v -2.36414 h -2.36413 v -0.78806 h 2.36413 v -2.36413 h 0.78804 v 2.36413 h 2.36413 v 0.78806 H 259.385 Z"
       id="path20401"
       style="stroke-width:0.788044" />
    <path
       fill-rule="evenodd"
       clip-rule="evenodd"
       d="m 286.04577,131.89483 h 10.21577 l 0.39291,0.39291 v 7.85829 l -0.39291,0.39291 h -5.33814 l -2.24195,2.24275 -0.67111,-0.27829 v -1.96458 h -1.96457 l -0.39291,-0.39291 v -7.85829 z m 4.71496,7.85829 h 5.10791 v -7.07244 h -9.42994 v 7.07244 h 1.96455 l 0.39294,0.39291 v 1.409 l 1.68637,-1.68717 z m 0,-6.28663 h 0.78585 v 3.92915 h -0.78585 z m 0,5.50079 h 0.78585 v -0.78582 h -0.78585 z"
       id="path36067"
       style="stroke-width:0.785827" />
  </g>
</svg>
