<?xml version="1.0" encoding="UTF-8" standalone="no"?>
<!-- Created with Inkscape (http://www.inkscape.org/) -->

<svg
   width="289.18713mm"
   height="114.61797mm"
   viewBox="0 0 289.18713 114.61797"
   version="1.1"
   id="svg162655"
   inkscape:version="1.2.2 (b0a8486541, 2022-12-01)"
   sodipodi:docname="github_workflow.svg"
   xmlns:inkscape="http://www.inkscape.org/namespaces/inkscape"
   xmlns:sodipodi="http://sodipodi.sourceforge.net/DTD/sodipodi-0.dtd"
   xmlns="http://www.w3.org/2000/svg"
   xmlns:svg="http://www.w3.org/2000/svg">
  <sodipodi:namedview
     id="namedview162657"
     pagecolor="#ffffff"
     bordercolor="#666666"
     borderopacity="1.0"
     inkscape:showpageshadow="2"
     inkscape:pageopacity="0.0"
     inkscape:pagecheckerboard="0"
     inkscape:deskcolor="#d1d1d1"
     inkscape:document-units="mm"
     showgrid="false"
     inkscape:zoom="0.95497112"
     inkscape:cx="487.4493"
     inkscape:cy="142.93626"
     inkscape:window-width="1916"
     inkscape:window-height="1036"
     inkscape:window-x="0"
     inkscape:window-y="20"
     inkscape:window-maximized="1"
     inkscape:current-layer="layer1" />
  <defs
     id="defs162652">
    <marker
       style="overflow:visible"
       id="Arrow2"
       refX="0"
       refY="0"
       orient="auto-start-reverse"
       inkscape:stockid="Arrow2"
       markerWidth="7.6999998"
       markerHeight="5.5999999"
       viewBox="0 0 7.7 5.6"
       inkscape:isstock="true"
       inkscape:collect="always"
       preserveAspectRatio="xMidYMid">
      <path
         transform="scale(0.7)"
         d="M -2,-4 9,0 -2,4 c 2,-2.33 2,-5.66 0,-8 z"
         style="fill:context-stroke;fill-rule:evenodd;stroke:none"
         id="arrow2L" />
    </marker>
  </defs>
  <g
     inkscape:label="Layer 1"
     inkscape:groupmode="layer"
     id="layer1"
     transform="translate(-44.420155,-80.718229)">
    <path
       d="m 90.179286,101.61301 c 0,0.0751 -0.08631,0.13503 -0.195163,0.13503 -0.123846,0.011 -0.210176,-0.0489 -0.210176,-0.13503 0,-0.075 0.08631,-0.13504 0.195165,-0.13504 0.112603,-0.011 0.210174,0.0489 0.210174,0.13504 z m -1.167224,-0.16884 c -0.02627,0.075 0.0488,0.16131 0.161381,0.1839 0.09758,0.0375 0.210176,0 0.232693,-0.0751 0.02252,-0.075 -0.0488,-0.1613 -0.161381,-0.19516 -0.09758,-0.0263 -0.206423,0.011 -0.232695,0.0863 z m 1.658884,-0.0637 c -0.108837,0.0263 -0.183904,0.0976 -0.172644,0.1839 0.01139,0.0751 0.108837,0.12383 0.221437,0.0976 0.108836,-0.0263 0.183903,-0.0976 0.172643,-0.17269 -0.01139,-0.0713 -0.112603,-0.12016 -0.221436,-0.10877 z m 2.469562,-14.382008 c -5.205595,0 -9.187667,3.95206 -9.187667,9.157654 0,4.162214 2.619685,7.723944 6.361557,8.977474 0.480402,0.0864 0.649292,-0.21017 0.649292,-0.45412 0,-0.2327 -0.01139,-1.51628 -0.01139,-2.30442 0,0 -2.627192,0.56296 -3.178901,-1.11843 0,0 -0.427859,-1.09217 -1.043371,-1.37365 0,0 -0.859468,-0.589251 0.06006,-0.577989 0,0 0.934531,0.07496 1.44871,0.968309 0.821935,1.44872 2.199335,1.03211 2.736032,0.78442 0.08631,-0.60052 0.330277,-1.01711 0.600501,-1.264819 -2.098001,-0.232684 -4.214766,-0.536689 -4.214766,-4.147209 0,-1.032113 0.285237,-1.550044 0.885738,-2.210597 -0.09757,-0.243946 -0.416597,-1.249787 0.09758,-2.54837 0.784406,-0.243964 2.589661,1.013337 2.589661,1.013337 0.750627,-0.210178 1.55755,-0.319015 2.356966,-0.319015 0.799418,0 1.606341,0.108763 2.356968,0.319015 0,0 1.805255,-1.261049 2.589661,-1.013337 0.514177,1.302331 0.195162,2.304424 0.09758,2.54837 0.6005,0.664301 0.968306,1.182232 0.968306,2.210597 0,3.621764 -2.210593,3.910759 -4.308594,4.147209 0.345288,0.296489 0.638033,0.859469 0.638033,1.741459 0,1.2648 -0.01139,2.82985 -0.01139,3.13761 0,0.24396 0.172643,0.54045 0.649292,0.45414 3.753134,-1.24604 6.297754,-4.80777 6.297754,-8.969984 0,-5.205594 -4.222272,-9.157654 -9.427867,-9.157654 z M 87.600885,99.94296 c -0.0488,0.03748 -0.03753,0.12383 0.02629,0.19517 0.06006,0.0601 0.146371,0.0863 0.19516,0.0375 0.0488,-0.0375 0.03753,-0.12383 -0.02627,-0.19517 -0.06006,-0.06008 -0.146371,-0.08635 -0.195163,-0.03748 z m -0.405338,-0.304005 c -0.02627,0.04887 0.01139,0.108764 0.08631,0.146427 0.06006,0.03748 0.135109,0.02627 0.161382,-0.02627 0.02627,-0.04887 -0.01139,-0.108764 -0.08631,-0.146427 -0.07505,-0.0226 -0.135109,-0.01102 -0.161382,0.02627 z m 1.216013,1.336115 c -0.06006,0.0489 -0.03753,0.16131 0.0488,0.2327 0.08631,0.0864 0.195162,0.0976 0.243953,0.0375 0.0488,-0.0489 0.02627,-0.1613 -0.0488,-0.2327 -0.08257,-0.0864 -0.195162,-0.0976 -0.243953,-0.0375 z m -0.427856,-0.5517 c -0.06006,0.0375 -0.06006,0.13504 0,0.22143 0.06004,0.0863 0.161382,0.12382 0.210175,0.0863 0.06006,-0.0489 0.06006,-0.14643 0,-0.23269 -0.05253,-0.0863 -0.15012,-0.12383 -0.210175,-0.0751 z"
       id="path166367"
       style="stroke-width:0.0375313" />
    <path
       style="fill:none;stroke:#000000;stroke-width:1.05833;stroke-linecap:butt;stroke-linejoin:miter;stroke-dasharray:none;stroke-opacity:1"
       d="m 46.627084,148.87191 96.369056,6e-5"
       id="path170728"
       sodipodi:nodetypes="cc" />
    <text
       xml:space="preserve"
       style="font-size:7.05556px;line-height:1.25;font-family:Poppins;-inkscape-font-specification:Poppins;stroke-width:0.264583"
       x="80.319153"
       y="159.0954"
       id="text170732"><tspan
         sodipodi:role="line"
         id="tspan170730"
         style="font-size:7.05556px;stroke-width:0.264583"
         x="80.319153"
         y="159.0954">main</tspan></text>
    <text
       xml:space="preserve"
       style="font-size:7.05556px;line-height:1.25;font-family:Poppins;-inkscape-font-specification:Poppins;stroke-width:0.264583"
       x="72.093437"
       y="117.77434"
       id="text170732-4"><tspan
         sodipodi:role="line"
         id="tspan170730-5"
         style="font-size:7.05556px;stroke-width:0.264583"
         x="72.093437"
         y="117.77434">feature-XYZ</tspan></text>
    <path
       style="fill:none;stroke:#000000;stroke-width:1.05833;stroke-linecap:butt;stroke-linejoin:miter;stroke-dasharray:none;stroke-opacity:1"
       d="m 62.728133,148.87191 c 7.948513,0 7.688805,-22.487 21.245884,-22.487 h 16.305563"
       id="path172226"
       sodipodi:nodetypes="ccc" />
    <path
       style="fill:none;stroke:#000000;stroke-width:1.05833;stroke-linecap:butt;stroke-linejoin:miter;stroke-dasharray:2.11666, 2.11666;stroke-dashoffset:0;stroke-opacity:1;marker-start:url(#Arrow2)"
       d="m 123.94745,145.31218 c -9.48984,-5.89686 -7.84881,-18.92727 -21.4059,-18.92727"
       id="path172226-0"
       sodipodi:nodetypes="cc" />
    <circle
       style="fill:#ffffff;fill-opacity:1;stroke:#000000;stroke-width:1.05833;stroke-dasharray:none;stop-color:#000000"
       id="path170786-8"
       cx="99.604462"
       cy="126.50466"
       r="2.391181" />
    <circle
       style="fill:#ffffff;fill-opacity:1;stroke:#000000;stroke-width:1.05833;stroke-dasharray:none;stop-color:#000000"
       id="path170786"
       cx="62.657452"
       cy="148.97444"
       r="2.391181" />
    <circle
       style="fill:#ffffff;fill-opacity:1;stroke:#000000;stroke-width:1.05833;stroke-dasharray:none;stop-color:#000000"
       id="path170786-7"
       cx="82.202332"
       cy="126.31716"
       r="2.391181" />
    <path
       fill-rule="evenodd"
       clip-rule="evenodd"
       d="m 133.7786,130.73968 a 2.2277319,2.2277319 0 0 1 -1.00234,0.82588 c -0.13258,0.0538 -0.41025,0.1236 -0.41025,0.1236 v 4.48592 a 2.2483341,2.2483341 0 0 1 1.41439,0.95129 c 0.24453,0.36905 0.37532,0.8017 0.37532,1.2433 0.007,0.30723 -0.0511,0.61269 -0.17019,0.89575 a 2.2259404,2.2259404 0 0 1 -2.10233,1.37767 2.2232531,2.2232531 0 0 1 -1.2433,-0.37532 2.2277319,2.2277319 0 0 1 -0.95129,-2.2976 c 0.0851,-0.43534 0.2965,-0.83484 0.60911,-1.14925 0.31262,-0.30724 0.70764,-0.51864 1.13671,-0.60911 v -4.55758 a 2.3289517,2.3289517 0 0 1 -1.13671,-0.60911 2.2420638,2.2420638 0 0 1 -0.60911,-1.14925 2.2277319,2.2277319 0 0 1 0.9495,-2.2976 2.2304191,2.2304191 0 0 1 1.24509,-0.37711 2.2429596,2.2429596 0 0 1 1.61862,0.653 2.2331064,2.2331064 0 0 1 0.653,1.62131 c 0.002,0.4425 -0.12898,0.87604 -0.37621,1.2442 z m -0.67718,7.04149 a 1.343626,1.343626 0 0 0 -0.49446,-0.51864 1.2988384,1.2988384 0 0 0 -0.68972,-0.1881 1.3391472,1.3391472 0 0 0 -1.31676,1.6034 1.3373557,1.3373557 0 0 0 1.05699,1.05609 c 0.25797,0.052 0.52491,0.0267 0.77034,-0.0717 0.24725,-0.10482 0.45863,-0.27948 0.60911,-0.50162 0.13437,-0.20246 0.21051,-0.43892 0.22304,-0.68077 a 1.3525835,1.3525835 0 0 0 -0.15854,-0.69869 z m -1.92766,-7.209 c 0.22125,0.14423 0.48012,0.22392 0.74348,0.22392 0.24274,0 0.48191,-0.0672 0.68972,-0.18901 a 1.3561665,1.3561665 0 0 0 0.653,-1.21732 1.3552707,1.3552707 0 0 0 -0.22395,-0.68078 1.3893092,1.3893092 0 0 0 -0.60911,-0.50162 1.3346685,1.3346685 0 0 0 -0.77034,-0.0717 1.3382515,1.3382515 0 0 0 -1.05609,1.05699 c -0.052,0.25797 -0.0267,0.52491 0.0717,0.77035 0.10481,0.24724 0.27947,0.45862 0.50162,0.60911 z m 9.25221,2.0235 h -0.89753 v -1.35258 a 1.343626,1.343626 0 0 0 -1.34364,-1.34363 h -1.65534 l 1.13671,1.13761 -0.63597,0.63508 -1.90707,-1.90705 v -0.62702 l 1.90795,-1.90795 0.63597,0.63688 -1.13669,1.1376 h 1.65714 a 2.2250446,2.2250446 0 0 1 2.07096,1.38035 c 0.11206,0.2705 0.16927,0.56253 0.16758,0.85723 v 1.35348 z m -0.0339,8.06176 h -0.89574 v -2.68725 h -2.68725 v -0.89575 h 2.68725 v -2.68726 h 0.89574 v 2.68726 h 2.68725 v 0.89575 h -2.68725 z"
       id="path175065"
       style="stroke-width:0.89575" />
    <rect
       style="fill:none;fill-opacity:1;stroke:#000000;stroke-width:0.79375;stroke-dasharray:1.5875, 1.5875;stroke-dashoffset:0;stroke-opacity:1;stop-color:#000000"
       id="rect200276"
       width="209.6348"
       height="87.573051"
       x="44.819088"
       y="82.770638"
       ry="6.8683019" />
  </g>
</svg>
