<?xml version="1.0" encoding="UTF-8" standalone="no"?>
<!-- Created with Inkscape (http://www.inkscape.org/) -->

<svg
   width="2394.8616"
   height="1023.9666"
   viewBox="0 0 633.64046 270.9245"
   version="1.1"
   id="svg5"
   inkscape:version="1.2.2 (b0a8486541, 2022-12-01)"
   sodipodi:docname="initial_setup.svg"
   xmlns:inkscape="http://www.inkscape.org/namespaces/inkscape"
   xmlns:sodipodi="http://sodipodi.sourceforge.net/DTD/sodipodi-0.dtd"
   xmlns="http://www.w3.org/2000/svg"
   xmlns:svg="http://www.w3.org/2000/svg"
   xmlns:sketch="http://www.bohemiancoding.com/sketch/ns">
  <sodipodi:namedview
     id="namedview7"
     pagecolor="#ffffff"
     bordercolor="#666666"
     borderopacity="1.0"
     inkscape:pageshadow="2"
     inkscape:pageopacity="0.0"
     inkscape:pagecheckerboard="0"
     inkscape:document-units="mm"
     showgrid="false"
     units="px"
     inkscape:zoom="0.40567375"
     inkscape:cx="903.43533"
     inkscape:cy="417.82343"
     inkscape:window-width="1916"
     inkscape:window-height="1036"
     inkscape:window-x="0"
     inkscape:window-y="20"
     inkscape:window-maximized="1"
     inkscape:current-layer="layer1"
     showguides="false"
     fit-margin-top="0"
     fit-margin-left="0"
     fit-margin-right="0"
     fit-margin-bottom="0"
     inkscape:showpageshadow="2"
     inkscape:deskcolor="#d1d1d1" />
  <defs
     id="defs2">
    <marker
       style="overflow:visible"
       id="Arrow1L"
       refX="0"
       refY="0"
       orient="auto-start-reverse"
       inkscape:stockid="Arrow1L"
       markerWidth="8.75"
       markerHeight="5"
       viewBox="0 0 8.75 5"
       inkscape:isstock="true"
       inkscape:collect="always"
       preserveAspectRatio="xMidYMid">
      <path
         style="fill:context-stroke;fill-rule:evenodd;stroke:none"
         d="M 0,0 5,-5 -12.5,0 5,5 Z"
         id="arrow1L"
         transform="scale(-0.5)" />
    </marker>
    <marker
       style="overflow:visible"
       id="Arrow1Mend"
       refX="0"
       refY="0"
       orient="auto"
       inkscape:stockid="Arrow1Mend"
       inkscape:isstock="true"
       viewBox="0 0 8.886927 5.078244"
       markerWidth="8.8869267"
       markerHeight="5.0782442"
       preserveAspectRatio="xMidYMid">
      <path
         transform="matrix(-0.4,0,0,-0.4,-4,0)"
         style="fill:context-stroke;fill-rule:evenodd;stroke:context-stroke;stroke-width:1pt"
         d="M 0,0 5,-5 -12.5,0 5,5 Z"
         id="path1406" />
    </marker>
    <marker
       style="overflow:visible"
       id="Arrow1Lstart"
       refX="0"
       refY="0"
       orient="auto"
       inkscape:stockid="Arrow1Lstart"
       inkscape:isstock="true">
      <path
         transform="matrix(0.8,0,0,0.8,10,0)"
         style="fill:context-stroke;fill-rule:evenodd;stroke:context-stroke;stroke-width:1pt"
         d="M 0,0 5,-5 -12.5,0 5,5 Z"
         id="path1397" />
    </marker>
    <marker
       style="overflow:visible"
       id="Arrow1Mend-2"
       refX="0"
       refY="0"
       orient="auto"
       inkscape:stockid="Arrow1Mend"
       inkscape:isstock="true">
      <path
         transform="matrix(-0.4,0,0,-0.4,-4,0)"
         style="fill:context-stroke;fill-rule:evenodd;stroke:context-stroke;stroke-width:1pt"
         d="M 0,0 5,-5 -12.5,0 5,5 Z"
         id="path1406-9" />
    </marker>
    <marker
       style="overflow:visible"
       id="Arrow1Mend-9"
       refX="0"
       refY="0"
       orient="auto"
       inkscape:stockid="Arrow1Mend"
       inkscape:isstock="true">
      <path
         transform="matrix(-0.4,0,0,-0.4,-4,0)"
         style="fill:context-stroke;fill-rule:evenodd;stroke:context-stroke;stroke-width:1pt"
         d="M 0,0 5,-5 -12.5,0 5,5 Z"
         id="path1406-3" />
    </marker>
    <marker
       style="overflow:visible"
       id="Arrow1Mend-26"
       refX="0"
       refY="0"
       orient="auto"
       inkscape:stockid="Arrow1Mend"
       inkscape:isstock="true">
      <path
         transform="matrix(-0.4,0,0,-0.4,-4,0)"
         style="fill:context-stroke;fill-rule:evenodd;stroke:context-stroke;stroke-width:1pt"
         d="M 0,0 5,-5 -12.5,0 5,5 Z"
         id="path1406-1" />
    </marker>
    <marker
       style="overflow:visible"
       id="Arrow1Mend-7"
       refX="0"
       refY="0"
       orient="auto"
       inkscape:stockid="Arrow1Mend"
       inkscape:isstock="true">
      <path
         transform="matrix(-0.4,0,0,-0.4,-4,0)"
         style="fill:context-stroke;fill-rule:evenodd;stroke:context-stroke;stroke-width:1pt"
         d="M 0,0 5,-5 -12.5,0 5,5 Z"
         id="path1406-36" />
    </marker>
    <marker
       style="overflow:visible"
       id="Arrow1Mend-7-2"
       refX="0"
       refY="0"
       orient="auto"
       inkscape:stockid="Arrow1Mend"
       inkscape:isstock="true">
      <path
         transform="matrix(-0.4,0,0,-0.4,-4,0)"
         style="fill:context-stroke;fill-rule:evenodd;stroke:context-stroke;stroke-width:1pt"
         d="M 0,0 5,-5 -12.5,0 5,5 Z"
         id="path1406-36-9" />
    </marker>
    <marker
       style="overflow:visible"
       id="Arrow1Mend-7-2-1"
       refX="0"
       refY="0"
       orient="auto"
       inkscape:stockid="Arrow1Mend"
       inkscape:isstock="true">
      <path
         transform="matrix(-0.4,0,0,-0.4,-4,0)"
         style="fill:context-stroke;fill-rule:evenodd;stroke:context-stroke;stroke-width:1pt"
         d="M 0,0 5,-5 -12.5,0 5,5 Z"
         id="path1406-36-9-9" />
    </marker>
    <marker
       style="overflow:visible"
       id="Arrow1Mend-7-2-1-5"
       refX="0"
       refY="0"
       orient="auto"
       inkscape:stockid="Arrow1Mend"
       inkscape:isstock="true">
      <path
         transform="matrix(-0.4,0,0,-0.4,-4,0)"
         style="fill:context-stroke;fill-rule:evenodd;stroke:context-stroke;stroke-width:1pt"
         d="M 0,0 5,-5 -12.5,0 5,5 Z"
         id="path1406-36-9-9-0" />
    </marker>
    <marker
       style="overflow:visible"
       id="Arrow1Mend-26-6"
       refX="0"
       refY="0"
       orient="auto"
       inkscape:stockid="Arrow1Mend"
       inkscape:isstock="true">
      <path
         transform="matrix(-0.4,0,0,-0.4,-4,0)"
         style="fill:context-stroke;fill-rule:evenodd;stroke:context-stroke;stroke-width:1pt"
         d="M 0,0 5,-5 -12.5,0 5,5 Z"
         id="path1406-1-1" />
    </marker>
    <marker
       style="overflow:visible"
       id="Arrow1Mend-26-6-6"
       refX="0"
       refY="0"
       orient="auto"
       inkscape:stockid="Arrow1Mend"
       inkscape:isstock="true">
      <path
         transform="matrix(-0.4,0,0,-0.4,-4,0)"
         style="fill:context-stroke;fill-rule:evenodd;stroke:context-stroke;stroke-width:1pt"
         d="M 0,0 5,-5 -12.5,0 5,5 Z"
         id="path1406-1-1-3" />
    </marker>
    <marker
       style="overflow:visible"
       id="Arrow1Mend-26-6-6-0"
       refX="0"
       refY="0"
       orient="auto"
       inkscape:stockid="Arrow1Mend"
       inkscape:isstock="true">
      <path
         transform="matrix(-0.4,0,0,-0.4,-4,0)"
         style="fill:context-stroke;fill-rule:evenodd;stroke:context-stroke;stroke-width:1pt"
         d="M 0,0 5,-5 -12.5,0 5,5 Z"
         id="path1406-1-1-3-6" />
    </marker>
    <marker
       style="overflow:visible"
       id="Arrow1Mend-26-6-6-0-5"
       refX="0"
       refY="0"
       orient="auto"
       inkscape:stockid="Arrow1Mend"
       inkscape:isstock="true">
      <path
         transform="matrix(-0.4,0,0,-0.4,-4,0)"
         style="fill:context-stroke;fill-rule:evenodd;stroke:context-stroke;stroke-width:1pt"
         d="M 0,0 5,-5 -12.5,0 5,5 Z"
         id="path1406-1-1-3-6-5" />
    </marker>
    <marker
       style="overflow:visible"
       id="marker36761"
       refX="0"
       refY="0"
       orient="auto"
       inkscape:stockid="Arrow1Mend"
       inkscape:isstock="true">
      <path
         transform="matrix(-0.4,0,0,-0.4,-4,0)"
         style="fill:context-stroke;fill-rule:evenodd;stroke:context-stroke;stroke-width:1pt"
         d="M 0,0 5,-5 -12.5,0 5,5 Z"
         id="path36759" />
    </marker>
    <marker
       style="overflow:visible"
       id="marker54824"
       refX="0"
       refY="0"
       orient="auto"
       inkscape:stockid="Arrow1Mend"
       inkscape:isstock="true">
      <path
         transform="matrix(-0.4,0,0,-0.4,-4,0)"
         style="fill:context-stroke;fill-rule:evenodd;stroke:context-stroke;stroke-width:1pt"
         d="M 0,0 5,-5 -12.5,0 5,5 Z"
         id="path54822" />
    </marker>
    <marker
       style="overflow:visible"
       id="Arrow1L-3"
       refX="0"
       refY="0"
       orient="auto-start-reverse"
       inkscape:stockid="Arrow1L"
       markerWidth="8.75"
       markerHeight="5"
       viewBox="0 0 8.75 5"
       inkscape:isstock="true"
       inkscape:collect="always"
       preserveAspectRatio="xMidYMid">
      <path
         style="fill:context-stroke;fill-rule:evenodd;stroke:none"
         d="M 0,0 5,-5 -12.5,0 5,5 Z"
         id="arrow1L-5"
         transform="scale(-0.5)" />
    </marker>
  </defs>
  <g
     inkscape:label="Layer 1"
     inkscape:groupmode="layer"
     id="layer1"
     transform="translate(-11.063989,-3.6499902)">
    <rect
       style="fill:none;stroke:#000000;stroke-width:1.852;stroke-miterlimit:4;stroke-dasharray:5.556, 5.556;stroke-dashoffset:0;stroke-opacity:1;stop-color:#000000"
       id="rect1176-7"
       width="163.07753"
       height="268.97873"
       x="11.989989"
       y="4.6656733"
       ry="7.648035" />
    <rect
       style="fill:none;stroke:#000000;stroke-width:1.852;stroke-miterlimit:4;stroke-dasharray:5.556, 5.556;stroke-dashoffset:0;stroke-opacity:1;stop-color:#000000"
       id="rect1176-7-75"
       width="204.65414"
       height="269.11362"
       x="439.10751"
       y="4.5307922"
       ry="7.648035" />
    <g
       id="spacing_guides"
       class="st14"
       transform="matrix(0.26458333,0,0,0.26458333,-1.3828309,203.24246)">
      <path
         id="path40_32_"
         sketch:type="MSShapeGroup"
         class="st15"
         d="M -1,0 V 124 H 1267 V 0 Z" />
      <path
         id="path40_31_"
         sketch:type="MSShapeGroup"
         class="st15"
         d="M -1,435 V 559 H 1267 V 435 Z" />
      <path
         id="path40_30_"
         sketch:type="MSShapeGroup"
         class="st15"
         d="m 261.69,434.551 h 62 v -310 h -62 z" />
      <path
         id="path40_29_"
         sketch:type="MSShapeGroup"
         class="st15"
         d="m 462.2,560 h 62 V -1 h -62 z" />
      <text
         transform="translate(256.2529,195)"
         class="st16 st18 st19"
         id="text2569">H: 2.5 x</text>
      <text
         transform="translate(468.4727,282.832)"
         class="st16 st18 st19"
         id="text2571">1/2 x</text>
      <text
         transform="translate(621.2881,500.4978)"
         class="st16 st18 st19"
         id="text2573">1x</text>
      <text
         transform="translate(621.2881,65.4988)"
         class="st16 st18 st19"
         id="text2575">1x</text>
      <path
         id="path40_27_"
         sketch:type="MSShapeGroup"
         class="st15"
         d="M 0,560 H 124 V -1 H 0 Z" />
      <text
         transform="translate(51.2881,282.832)"
         class="st16 st18 st19"
         id="text2578">1x</text>
      <path
         id="path40_3_"
         sketch:type="MSShapeGroup"
         class="st15"
         d="m 1142,560 h 124 V -1 h -124 z" />
      <text
         transform="translate(1191.2881,282.832)"
         class="st16 st18 st19"
         id="text2581">1x</text>
    </g>
    <text
       xml:space="preserve"
       style="font-size:16.9333px;line-height:1.25;font-family:Poppins;-inkscape-font-specification:Poppins;stroke-width:0.264583"
       x="53.281334"
       y="33.725307"
       id="text6606-0"><tspan
         sodipodi:role="line"
         id="tspan6604-6"
         style="font-style:normal;font-variant:normal;font-weight:normal;font-stretch:normal;font-size:16.9333px;font-family:'Roboto Mono';-inkscape-font-specification:'Roboto Mono';stroke-width:0.264583"
         x="53.281334"
         y="33.725307">:Update:BCI</tspan></text>
    <text
       xml:space="preserve"
       style="font-size:16.9333px;line-height:1.25;font-family:Poppins;-inkscape-font-specification:Poppins;stroke-width:0.264583"
       x="81.93541"
       y="254.93185"
       id="text6606-0-2"><tspan
         sodipodi:role="line"
         id="tspan6604-6-0"
         style="font-size:16.9333px;stroke-width:0.264583"
         x="81.93541"
         y="254.93185">Python</tspan></text>
    <text
       xml:space="preserve"
       style="font-size:16.9333px;line-height:1.25;font-family:Poppins;-inkscape-font-specification:Poppins;stroke-width:0.264583"
       x="514.36218"
       y="178.09552"
       id="text6606-0-2-3"><tspan
         sodipodi:role="line"
         id="tspan6604-6-0-6"
         style="font-size:16.9333px;stroke-width:0.264583"
         x="514.36218"
         y="178.09552">OpenJDK</tspan></text>
    <path
       fill-rule="evenodd"
       clip-rule="evenodd"
       d="m 22.692765,14.076182 h 27.298312 l 1.049996,1.04993 v 27.29839 l -1.049996,1.04992 H 22.692765 l -1.049938,-1.04992 v -27.29839 z m 1.049939,27.29839 H 48.94115 V 16.176112 H 23.742704 Z m 2.09987,-23.09861 h 4.199748 v 20.99869 h -4.199748 z m 12.599234,0 h -4.199747 v 12.59923 h 4.199747 z m 4.199745,0 h 4.199752 v 16.799 h -4.199752 z"
       id="path2-3"
       style="stroke-width:2.09987" />
    <g
       id="g167094"
       transform="translate(-346.13132,-15.065754)">
      <path
         fill="#636a72"
         d="m 461.96124,75.110165 v 35.157325 1.8503 38.85826 l 23.84132,-9.25216 -1.35171,-19.78715 -18.60402,-9.82322 V 80.661063 Z m -18.45774,5.635852 v 33.214193 l 3.40014,-0.68061 V 86.489783 Z m -18.44919,5.492184 -0.008,31.415059 3.40868,-0.68258 V 91.789426 Z"
         id="path84629"
         style="stroke-width:0.167941" />
      <path
         d="m 461.96124,75.110165 -9.22891,5.550926 v 31.452619 l -3.40017,0.68062 -4.3714,0.87448 -1.45734,0.2916 V 80.661091 l -9.22892,5.55158 v 29.594439 l -3.88594,0.77706 -4.3714,0.87447 -0.97156,0.19485 V 86.212671 l -9.2289,5.550924 v 27.735925 l -12.27057,2.43745 -3.72914,19.78726 26.20017,3.90103 27.6559,4.11751 8.28818,1.23365 v -27.38167 -11.47678 -1.84998 z"
         fill="#868e96"
         id="path84631"
         style="stroke-width:0.167941" />
    </g>
    <path
       fill-rule="evenodd"
       clip-rule="evenodd"
       d="m 52.662278,160.41847 15.06203,4.01476 1.70564,1.23336 v 17.68604 l -0.97094,1.25954 -16.08534,4.43458 -16.111604,-4.43458 -0.944165,-1.25954 v -17.68604 l 1.600609,-1.23336 15.03575,-4.01476 z m -0.23604,2.62401 -10.49614,2.62411 1.44322,0.52465 9.00046,2.36169 7.87213,-2.12546 2.4928,-0.76068 z m -14.484721,19.31303 13.120251,3.59495 v -15.03585 l -13.120251,-3.5162 z m 15.744261,-11.4409 v 15.03585 l 13.12026,-3.59495 v -15.03584 l -5.30059,1.45115 v 6.73586 l -2.62411,0.68234 v -6.69927 z"
       id="path2-74"
       style="stroke-width:2.62404" />
    <text
       xml:space="preserve"
       style="font-size:16.9333px;line-height:1.25;font-family:Poppins;-inkscape-font-specification:Poppins;stroke-width:0.264583"
       x="81.93541"
       y="178.09552"
       id="text6606-0-2-2"><tspan
         sodipodi:role="line"
         id="tspan6604-6-0-9"
         style="font-size:16.9333px;stroke-width:0.264583"
         x="81.93541"
         y="178.09552">OpenJDK</tspan></text>
    <path
       fill-rule="evenodd"
       clip-rule="evenodd"
       d="m 52.662278,237.2548 15.06203,4.01476 1.70564,1.23336 v 17.68604 l -0.97094,1.25954 -16.08534,4.43458 -16.111604,-4.43458 -0.944165,-1.25954 v -17.68604 l 1.600609,-1.23336 15.03575,-4.01476 z m -0.23604,2.62401 -10.49614,2.62411 1.44322,0.52465 9.00046,2.36169 7.87213,-2.12546 2.4928,-0.76068 z m -14.484721,19.31303 13.120251,3.59495 v -15.03585 l -13.120251,-3.5162 z m 15.744261,-11.4409 v 15.03585 l 13.12026,-3.59495 V 244.156 l -5.30059,1.45115 v 6.73586 l -2.62411,0.68234 v -6.69927 z"
       id="path2-74-1"
       style="stroke-width:2.62404" />
    <text
       xml:space="preserve"
       style="font-size:16.9333px;line-height:1.25;font-family:Poppins;-inkscape-font-specification:Poppins;stroke-width:0.264583"
       x="515.48248"
       y="254.93185"
       id="text6606-0-2-27"><tspan
         sodipodi:role="line"
         id="tspan6604-6-0-0"
         style="font-size:16.9333px;stroke-width:0.264583"
         x="515.48248"
         y="254.93185">Python</tspan></text>
    <path
       fill-rule="evenodd"
       clip-rule="evenodd"
       d="m 486.20936,237.2548 15.06203,4.01476 1.70564,1.23336 v 17.68604 l -0.97094,1.25954 -16.08534,4.43458 -16.1116,-4.43458 -0.94417,-1.25954 v -17.68604 l 1.60061,-1.23336 15.03575,-4.01476 z m -0.23604,2.62401 -10.49614,2.62411 1.44322,0.52465 9.00046,2.36169 7.87213,-2.12546 2.4928,-0.76068 z m -14.48472,19.31303 13.12025,3.59495 v -15.03585 l -13.12025,-3.5162 z m 15.74426,-11.4409 v 15.03585 l 13.12026,-3.59495 V 244.156 l -5.30059,1.45115 v 6.73586 l -2.62411,0.68234 v -6.69927 z"
       id="path2-74-1-9"
       style="stroke-width:2.62404" />
    <text
       xml:space="preserve"
       style="font-size:16.9333px;line-height:1.25;font-family:Poppins;-inkscape-font-specification:Poppins;stroke-width:0.264583"
       x="81.93541"
       y="217.19739"
       id="text6606-0-2-5"><tspan
         sodipodi:role="line"
         id="tspan6604-6-0-25"
         style="font-size:16.9333px;stroke-width:0.264583"
         x="81.93541"
         y="217.19739">.Net</tspan></text>
    <text
       xml:space="preserve"
       style="font-size:16.9333px;line-height:1.25;font-family:Poppins;-inkscape-font-specification:Poppins;stroke-width:0.264583"
       x="515.52368"
       y="217.19739"
       id="text6606-0-2-5-7"><tspan
         sodipodi:role="line"
         id="tspan6604-6-0-25-5"
         style="font-size:16.9333px;stroke-width:0.264583"
         x="515.52368"
         y="217.19739">.Net</tspan></text>
    <path
       fill-rule="evenodd"
       clip-rule="evenodd"
       d="m 52.662278,199.52061 15.06203,4.01476 1.70564,1.23336 v 17.68604 l -0.97094,1.25954 -16.08534,4.43458 -16.111604,-4.43458 -0.944165,-1.25954 v -17.68604 l 1.600609,-1.23336 15.03575,-4.01476 z m -0.23604,2.62401 -10.49614,2.62411 1.44322,0.52465 9.00046,2.36169 7.87213,-2.12546 2.4928,-0.76068 z m -14.484721,19.31303 13.120251,3.59495 v -15.03585 l -13.120251,-3.5162 z m 15.744261,-11.4409 v 15.03585 l 13.12026,-3.59495 v -15.03584 l -5.30059,1.45115 v 6.73586 l -2.62411,0.68234 v -6.69927 z"
       id="path2-74-4"
       style="stroke-width:2.62404" />
    <path
       fill-rule="evenodd"
       clip-rule="evenodd"
       d="m 486.10123,160.41846 15.06203,4.01476 1.70564,1.23336 v 17.68604 l -0.97094,1.25954 -16.08534,4.43458 -16.1116,-4.43458 -0.94417,-1.25954 v -17.68604 l 1.60061,-1.23336 15.03575,-4.01476 z m -0.23604,2.62401 -10.49614,2.62411 1.44322,0.52465 9.00046,2.36169 7.87213,-2.12546 2.4928,-0.76068 z m -14.48472,19.31303 13.12025,3.59495 V 170.9146 l -13.12025,-3.5162 z m 15.74426,-11.4409 v 15.03585 l 13.12026,-3.59495 v -15.03584 l -5.30059,1.45115 v 6.73586 l -2.62411,0.68234 v -6.69927 z"
       id="path2-74-8-7"
       style="stroke-width:2.62404" />
    <path
       fill-rule="evenodd"
       clip-rule="evenodd"
       d="m 486.10123,199.5206 15.06203,4.01476 1.70564,1.23336 v 17.68604 l -0.97094,1.25954 -16.08534,4.43458 -16.1116,-4.43458 -0.94417,-1.25954 v -17.68604 l 1.60061,-1.23336 15.03575,-4.01476 z m -0.23604,2.62401 -10.49614,2.62411 1.44322,0.52465 9.00046,2.36169 7.87213,-2.12546 2.4928,-0.76068 z m -14.48472,19.31303 13.12025,3.59495 v -15.03585 l -13.12025,-3.5162 z m 15.74426,-11.4409 v 15.03585 l 13.12026,-3.59495 V 206.4218 l -5.30059,1.45115 v 6.73586 l -2.62411,0.68234 v -6.69927 z"
       id="path2-74-4-8-1"
       style="stroke-width:2.62404" />
    <text
       xml:space="preserve"
       style="font-style:normal;font-weight:normal;font-size:10.5833px;line-height:1.25;font-family:sans-serif;fill:#000000;fill-opacity:1;stroke:none;stroke-width:0.264583"
       x="335.03513"
       y="173.42191"
       id="text7279"><tspan
         sodipodi:role="line"
         id="tspan7277"
         style="stroke-width:0.264583"
         x="335.03513"
         y="173.42191" /></text>
    <text
       xml:space="preserve"
       style="font-style:normal;font-weight:normal;font-size:16.9333px;line-height:1.25;font-family:sans-serif;fill:#000000;fill-opacity:1;stroke:none;stroke-width:0.264583"
       x="455.50302"
       y="32.532463"
       id="text15581"><tspan
         sodipodi:role="line"
         id="tspan15579"
         style="font-style:normal;font-variant:normal;font-weight:normal;font-stretch:normal;font-size:16.9333px;font-family:'Roboto Mono';-inkscape-font-specification:'Roboto Mono';stroke-width:0.264583"
         x="455.50302"
         y="32.532463">registry.suse.com</tspan></text>
    <path
       d="m 409.38476,177.52991 v 2.68582 h -32.23034 v -2.68582 h 5.37171 v -1.34297 a 2.6937977,2.6937977 0 0 1 -2.68588,-2.68583 v -13.42933 a 2.693744,2.693744 0 0 1 2.68588,-2.68583 h 2.681 v 2.68583 h -2.681 v 13.42933 H 404.013 v -13.42933 h -2.69075 v -2.68583 h 2.69075 a 2.6936903,2.6936903 0 0 1 2.68588,2.68583 l -0.0152,13.42933 a 2.6822485,2.6822485 0 0 1 -2.67243,2.68583 v 1.34297 z m -12.08638,-8.07464 -4.02879,-4.02879 -4.02879,4.02879 h 2.68583 v 2.69928 h 2.68587 v -2.69928 z m 1.33622,-10.73113 a 5.3717219,5.3717219 0 1 1 -5.37176,-5.3717 5.3736694,5.3736694 0 0 1 5.37176,5.3717 z m -5.90892,3.97453 v -0.75155 a 1.0774734,1.0774734 0 0 1 -1.07436,-1.07436 v -0.53715 l -2.34332,-2.34327 a 3.9719856,3.9719856 0 0 0 3.41768,4.70633 z m 3.57006,-1.35154 a 3.9973266,3.9973266 0 0 0 -1.43458,-6.3177 1.0707588,1.0707588 0 0 1 -1.06106,1.00883 h -1.07442 v 1.07437 a 0.53879716,0.53879716 0 0 1 -0.53715,0.53715 h -1.07436 v 1.07436 h 3.22303 a 0.53874341,0.53874341 0 0 1 0.53716,0.53716 v 1.61151 h 0.5372 a 1.0563088,1.0563088 0 0 1 0.88413,0.47458 z"
       id="path2-36"
       style="stroke-width:1.34293" />
    <path
       style="fill:none;stroke:#000000;stroke-width:1.32292;stroke-linecap:butt;stroke-linejoin:miter;stroke-dasharray:none;stroke-opacity:1;marker-end:url(#Arrow1L)"
       d="m 179.57671,190.63464 h 43.97637"
       id="path10593"
       sodipodi:nodetypes="cc" />
    <path
       style="fill:none;stroke:#000000;stroke-width:1.32292;stroke-linecap:butt;stroke-linejoin:miter;stroke-dasharray:none;stroke-opacity:1;marker-end:url(#Arrow1L-3)"
       d="m 349.35383,190.63464 78.60489,0"
       id="path10593-6"
       sodipodi:nodetypes="cc" />
    <text
       xml:space="preserve"
       style="font-size:22.5778px;line-height:1.25;font-family:Poppins;-inkscape-font-specification:Poppins;stroke-width:0.264583"
       x="270.97534"
       y="197.84584"
       id="text12547"><tspan
         sodipodi:role="line"
         id="tspan12545"
         style="font-size:22.5778px;stroke-width:0.264583"
         x="270.97534"
         y="197.84584">QA</tspan></text>
    <rect
       style="fill:none;stroke:#000000;stroke-width:1.85208;stroke-dasharray:5.55623996,5.55623996;stroke-dashoffset:0;stroke-opacity:1;stop-color:#000000"
       id="rect12601"
       width="109.78584"
       height="51.678501"
       x="234.77574"
       y="165.27699"
       ry="5.9792161" />
    <g
       id="g15457"
       transform="matrix(0.36722663,0,0,0.36722663,485.69075,58.2317)">
      <path
         class="st0"
         d="m 86.4,66.4 c 0,3.7 0.4,6.7 1.1,8.9 0.8,2.2 1.8,4.6 3.2,7.2 0.5,0.8 0.7,1.6 0.7,2.3 0,1 -0.6,2 -1.9,3 L 83.2,92 c -0.9,0.6 -1.8,0.9 -2.6,0.9 -1,0 -2,-0.5 -3,-1.4 C 76.2,90 75,88.4 74,86.8 73,85.1 72,83.2 70.9,80.9 63.1,90.1 53.3,94.7 41.5,94.7 c -8.4,0 -15.1,-2.4 -20,-7.2 -4.9,-4.8 -7.4,-11.2 -7.4,-19.2 0,-8.5 3,-15.4 9.1,-20.6 6.1,-5.2 14.2,-7.8 24.5,-7.8 3.4,0 6.9,0.3 10.6,0.8 3.7,0.5 7.5,1.3 11.5,2.2 V 35.6 C 69.8,28 68.2,22.7 65.1,19.6 61.9,16.5 56.5,15 48.8,15 c -3.5,0 -7.1,0.4 -10.8,1.3 -3.7,0.9 -7.3,2 -10.8,3.4 -1.6,0.7 -2.8,1.1 -3.5,1.3 -0.7,0.2 -1.2,0.3 -1.6,0.3 -1.4,0 -2.1,-1 -2.1,-3.1 V 13.3 C 20,11.7 20.2,10.5 20.7,9.8 21.2,9.1 22.1,8.4 23.5,7.7 27,5.9 31.2,4.4 36.1,3.2 41,1.9 46.2,1.3 51.7,1.3 63.6,1.3 72.3,4 77.9,9.4 83.4,14.8 86.2,23 86.2,34 V 66.4 Z M 45.8,81.6 c 3.3,0 6.7,-0.6 10.3,-1.8 3.6,-1.2 6.8,-3.4 9.5,-6.4 1.6,-1.9 2.8,-4 3.4,-6.4 0.6,-2.4 1,-5.3 1,-8.7 v -4.2 c -2.9,-0.7 -6,-1.3 -9.2,-1.7 -3.2,-0.4 -6.3,-0.6 -9.4,-0.6 -6.7,0 -11.6,1.3 -14.9,4 -3.3,2.7 -4.9,6.5 -4.9,11.5 0,4.7 1.2,8.2 3.7,10.6 2.4,2.5 5.9,3.7 10.5,3.7 z m 80.3,10.8 c -1.8,0 -3,-0.3 -3.8,-1 -0.8,-0.6 -1.5,-2 -2.1,-3.9 L 96.7,10.2 c -0.6,-2 -0.9,-3.3 -0.9,-4 0,-1.6 0.8,-2.5 2.4,-2.5 h 9.8 c 1.9,0 3.2,0.3 3.9,1 0.8,0.6 1.4,2 2,3.9 l 16.8,66.2 15.6,-66.2 c 0.5,-2 1.1,-3.3 1.9,-3.9 0.8,-0.6 2.2,-1 4,-1 h 8 c 1.9,0 3.2,0.3 4,1 0.8,0.6 1.5,2 1.9,3.9 l 15.8,67 17.3,-67 c 0.6,-2 1.3,-3.3 2,-3.9 0.8,-0.6 2.1,-1 3.9,-1 h 9.3 c 1.6,0 2.5,0.8 2.5,2.5 0,0.5 -0.1,1 -0.2,1.6 -0.1,0.6 -0.3,1.4 -0.7,2.5 l -24.1,77.3 c -0.6,2 -1.3,3.3 -2.1,3.9 -0.8,0.6 -2.1,1 -3.8,1 h -8.6 c -1.9,0 -3.2,-0.3 -4,-1 -0.8,-0.7 -1.5,-2 -1.9,-4 L 156,23 140.6,87.4 c -0.5,2 -1.1,3.3 -1.9,4 -0.8,0.7 -2.2,1 -4,1 z m 128.5,2.7 c -5.2,0 -10.4,-0.6 -15.4,-1.8 -5,-1.2 -8.9,-2.5 -11.5,-4 -1.6,-0.9 -2.7,-1.9 -3.1,-2.8 -0.4,-0.9 -0.6,-1.9 -0.6,-2.8 v -5.1 c 0,-2.1 0.8,-3.1 2.3,-3.1 0.6,0 1.2,0.1 1.8,0.3 0.6,0.2 1.5,0.6 2.5,1 3.4,1.5 7.1,2.7 11,3.5 4,0.8 7.9,1.2 11.9,1.2 6.3,0 11.2,-1.1 14.6,-3.3 3.4,-2.2 5.2,-5.4 5.2,-9.5 0,-2.8 -0.9,-5.1 -2.7,-7 -1.8,-1.9 -5.2,-3.6 -10.1,-5.2 L 246,52 c -7.3,-2.3 -12.7,-5.7 -16,-10.2 -3.3,-4.4 -5,-9.3 -5,-14.5 0,-4.2 0.9,-7.9 2.7,-11.1 1.8,-3.2 4.2,-6 7.2,-8.2 3,-2.3 6.4,-4 10.4,-5.2 4,-1.2 8.2,-1.7 12.6,-1.7 2.2,0 4.5,0.1 6.7,0.4 2.3,0.3 4.4,0.7 6.5,1.1 2,0.5 3.9,1 5.7,1.6 1.8,0.6 3.2,1.2 4.2,1.8 1.4,0.8 2.4,1.6 3,2.5 0.6,0.8 0.9,1.9 0.9,3.3 v 4.7 c 0,2.1 -0.8,3.2 -2.3,3.2 -0.8,0 -2.1,-0.4 -3.8,-1.2 -5.7,-2.6 -12.1,-3.9 -19.2,-3.9 -5.7,0 -10.2,0.9 -13.3,2.8 -3.1,1.9 -4.7,4.8 -4.7,8.9 0,2.8 1,5.2 3,7.1 2,1.9 5.7,3.8 11,5.5 l 14.2,4.5 c 7.2,2.3 12.4,5.5 15.5,9.6 3.1,4.1 4.6,8.8 4.6,14 0,4.3 -0.9,8.2 -2.6,11.6 -1.8,3.4 -4.2,6.4 -7.3,8.8 -3.1,2.5 -6.8,4.3 -11.1,5.6 -4.5,1.4 -9.2,2.1 -14.3,2.1 z"
         id="path15449"
         style="fill:#252f3e" />
      <g
         id="g15455">
        <path
           class="st1"
           d="M 273.5,143.7 C 240.6,168 192.8,180.9 151.7,180.9 94.1,180.9 42.2,159.6 3,124.2 c -3.1,-2.8 -0.3,-6.6 3.4,-4.4 42.4,24.6 94.7,39.5 148.8,39.5 36.5,0 76.6,-7.6 113.5,-23.2 5.5,-2.5 10.2,3.6 4.8,7.6 z"
           id="path15451"
           style="clip-rule:evenodd;fill:#ff9900;fill-rule:evenodd" />
        <path
           class="st1"
           d="m 287.2,128.1 c -4.2,-5.4 -27.8,-2.6 -38.5,-1.3 -3.2,0.4 -3.7,-2.4 -0.8,-4.5 18.8,-13.2 49.7,-9.4 53.3,-5 3.6,4.5 -1,35.4 -18.6,50.2 -2.7,2.3 -5.3,1.1 -4.1,-1.9 4,-9.9 12.9,-32.2 8.7,-37.5 z"
           id="path15453"
           style="clip-rule:evenodd;fill:#ff9900;fill-rule:evenodd" />
      </g>
    </g>
  </g>
  <style
     type="text/css"
     id="style1092">
	.st0{fill:#737373;}
	.st1{fill:#F25022;}
	.st2{fill:#7FBA00;}
	.st3{fill:#00A4EF;}
	.st4{fill:#FFB900;}
</style>
  <style
     type="text/css"
     id="style2536">
	.st0{fill:#FAFAFA;}
	.st1{fill:#F0F0F0;}
	.st2{fill:#FFFFFF;}
	.st3{fill:#E24329;}
	.st4{fill:#FCA326;}
	.st5{fill:#FC6D26;}
	.st6{fill:#8C929D;}
	.st7{fill:#2E2E2E;}
	.st8{fill:none;stroke:#FCA326;stroke-width:16;stroke-linecap:round;stroke-linejoin:round;stroke-miterlimit:10;}
	.st9{fill:none;stroke:#FC6D26;stroke-width:16;stroke-linecap:round;stroke-linejoin:round;stroke-miterlimit:10;}
	.st10{fill:none;stroke:#E24329;stroke-width:16;stroke-linecap:round;stroke-linejoin:round;stroke-miterlimit:10;}
	.st11{fill:none;stroke:#F0F0F0;stroke-miterlimit:10;}
	.st12{fill:#231F20;}
	.st13{fill:none;stroke:#231F20;stroke-width:16;stroke-linecap:round;stroke-linejoin:round;stroke-miterlimit:10;}
	.st14{display:none;}
	.st15{display:inline;opacity:0.1;fill:#E828E3;}
	.st16{display:inline;}
	.st17{opacity:0.1;fill:#E828E3;}
	.st18{font-family:'SourceSansPro-Semibold';}
	.st19{font-size:24px;}
	.st20{display:inline;fill:#DB3B21;}
	.st21{display:inline;fill:#FC6D26;}
	.st22{display:inline;fill:#2E2E2E;}
	.st23{display:inline;fill:#6E49CB;}
	.st24{display:inline;fill:#380D75;}
	.st25{display:inline;fill:#FCA121;}
	.st26{opacity:0.6;fill:none;stroke:#231F20;stroke-width:2;stroke-miterlimit:10;stroke-dasharray:12,6;}
	.st27{fill:none;stroke:#444444;stroke-width:1.5339;stroke-miterlimit:10;}
</style>
</svg>
